<svg width="59" height="12" viewBox="0 0 59 12" fill="none" xmlns="http://www.w3.org/2000/svg">
<path d="M3.936 9C3.472 9 3.14 8.744 2.94 8.232L0.048 0.599999H1.776L3.984 6.9H4.008L6.228 0.599999H7.944L4.716 9H3.936ZM9.72019 2.448C9.40819 2.448 9.15619 2.36 8.96419 2.184C8.78019 2 8.68819 1.76 8.68819 1.464C8.68819 1.168 8.78019 0.932 8.96419 0.756C9.15619 0.572 9.40819 0.48 9.72019 0.48C10.0322 0.48 10.2802 0.572 10.4642 0.756C10.6562 0.932 10.7522 1.168 10.7522 1.464C10.7522 1.76 10.6562 2 10.4642 2.184C10.2802 2.36 10.0322 2.448 9.72019 2.448ZM8.90419 3.012H10.5362V9H8.90419V3.012ZM14.4732 9.096C13.9692 9.096 13.5212 9.004 13.1292 8.82C12.7452 8.628 12.4452 8.364 12.2292 8.028C12.0132 7.684 11.9052 7.292 11.9052 6.852V5.304C11.9052 4.832 12.0132 4.416 12.2292 4.056C12.4452 3.696 12.7452 3.416 13.1292 3.216C13.5212 3.016 13.9692 2.916 14.4732 2.916H15.4332C16.2012 2.916 16.8172 3.132 17.2812 3.564C17.7452 3.996 17.9772 4.572 17.9772 5.292V6.564H13.5372V6.852C13.5372 7.116 13.6212 7.328 13.7892 7.488C13.9572 7.648 14.1852 7.728 14.4732 7.728H15.4092C15.6892 7.728 15.9132 7.668 16.0812 7.548C16.2572 7.42 16.3452 7.256 16.3452 7.056H17.9532C17.9532 7.456 17.8452 7.812 17.6292 8.124C17.4132 8.436 17.1092 8.676 16.7172 8.844C16.3332 9.012 15.8892 9.096 15.3852 9.096H14.4732ZM16.3692 5.388V5.292C16.3692 4.98 16.2852 4.732 16.1172 4.548C15.9492 4.356 15.7252 4.26 15.4452 4.26H14.4732C14.1852 4.26 13.9532 4.36 13.7772 4.56C13.6012 4.76 13.5132 5.024 13.5132 5.352V5.388H16.3692ZM21.6284 9C20.9244 9 20.4084 8.84 20.0804 8.52C19.7524 8.2 19.5884 7.704 19.5884 7.032V4.404H18.5324V3.012H19.6364V1.2H21.2204V3.012H22.7804V4.404H21.2204V6.96C21.2204 7.184 21.2604 7.348 21.3404 7.452C21.4284 7.556 21.5644 7.608 21.7484 7.608H22.7804V9H21.6284ZM25.1103 2.448C24.7983 2.448 24.5463 2.36 24.3543 2.184C24.1703 2 24.0783 1.76 24.0783 1.464C24.0783 1.168 24.1703 0.932 24.3543 0.756C24.5463 0.572 24.7983 0.48 25.1103 0.48C25.4223 0.48 25.6703 0.572 25.8543 0.756C26.0463 0.932 26.1423 1.168 26.1423 1.464C26.1423 1.76 26.0463 2 25.8543 2.184C25.6703 2.36 25.4223 2.448 25.1103 2.448ZM22.7103 9.996H23.4543C23.7423 9.996 23.9543 9.9 24.0903 9.708C24.2263 9.524 24.2943 9.236 24.2943 8.844V3.012H25.9263V8.784C25.9263 9.68 25.7263 10.336 25.3263 10.752C24.9263 11.176 24.3023 11.388 23.4543 11.388H22.7103V9.996ZM29.8599 9.096C29.3559 9.096 28.9079 9.004 28.5159 8.82C28.1319 8.628 27.8319 8.364 27.6159 8.028C27.3999 7.684 27.2919 7.292 27.2919 6.852V5.304C27.2919 4.832 27.3999 4.416 27.6159 4.056C27.8319 3.696 28.1319 3.416 28.5159 3.216C28.9079 3.016 29.3559 2.916 29.8599 2.916H30.8199C31.5879 2.916 32.2039 3.132 32.6679 3.564C33.1319 3.996 33.3639 4.572 33.3639 5.292V6.564H28.9239V6.852C28.9239 7.116 29.0079 7.328 29.1759 7.488C29.3439 7.648 29.5719 7.728 29.8599 7.728H30.7959C31.0759 7.728 31.2999 7.668 31.4679 7.548C31.6439 7.42 31.7319 7.256 31.7319 7.056H33.3399C33.3399 7.456 33.2319 7.812 33.0159 8.124C32.7999 8.436 32.4959 8.676 32.1039 8.844C31.7199 9.012 31.2759 9.096 30.7719 9.096H29.8599ZM31.7559 5.388V5.292C31.7559 4.98 31.6719 4.732 31.5039 4.548C31.3359 4.356 31.1119 4.26 30.8319 4.26H29.8599C29.5719 4.26 29.3399 4.36 29.1639 4.56C28.9879 4.76 28.8999 5.024 28.8999 5.352V5.388H31.7559ZM37.0151 9C36.3111 9 35.7951 8.84 35.4671 8.52C35.1391 8.2 34.9751 7.704 34.9751 7.032V4.404H33.9191V3.012H35.0231V1.2H36.6071V3.012H38.1671V4.404H36.6071V6.96C36.6071 7.184 36.6471 7.348 36.7271 7.452C36.8151 7.556 36.9511 7.608 37.1351 7.608H38.1671V9H37.0151ZM47.746 7.044H44.602L43.858 9H42.13L45.418 0.599999H46.162C46.682 0.599999 47.034 0.839999 47.218 1.32L50.206 9H48.478L47.746 7.044ZM45.046 5.652H47.302L46.186 2.628H46.174L45.046 5.652ZM51.978 2.448C51.666 2.448 51.414 2.36 51.222 2.184C51.038 2 50.946 1.76 50.946 1.464C50.946 1.168 51.038 0.932 51.222 0.756C51.414 0.572 51.666 0.48 51.978 0.48C52.29 0.48 52.538 0.572 52.722 0.756C52.914 0.932 53.01 1.168 53.01 1.464C53.01 1.76 52.914 2 52.722 2.184C52.538 2.36 52.29 2.448 51.978 2.448ZM51.162 3.012H52.794V9H51.162V3.012ZM54.403 3.012H55.915V3.78C56.067 3.548 56.283 3.36 56.563 3.216C56.851 3.064 57.151 2.988 57.463 2.988H58.279V4.404H57.463C57.039 4.404 56.695 4.532 56.431 4.788C56.167 5.044 56.035 5.372 56.035 5.772V9H54.403V3.012Z" fill="#FFB21C"/>
</svg>
