<svg width="222" height="39" viewBox="0 0 222 39" fill="none" xmlns="http://www.w3.org/2000/svg">
<path d="M0.786687 14.7143C0.536936 14.5965 0.429976 14.2985 0.547786 14.0488C0.665596 13.799 0.963562 13.6921 1.21331 13.8099L0.786687 14.7143ZM3.88253 15.049C4.13371 15.1637 4.24432 15.4603 4.12959 15.7115C4.01486 15.9627 3.71823 16.0733 3.46705 15.9586L3.88253 15.049ZM8.87269 18.3479C8.61877 18.2393 8.50089 17.9455 8.60942 17.6916C8.71794 17.4377 9.01176 17.3198 9.26568 17.4283L8.87269 18.3479ZM14.7058 19.6745C14.9623 19.7768 15.0874 20.0676 14.9851 20.3241C14.8829 20.5806 14.5921 20.7057 14.3356 20.6035L14.7058 19.6745ZM19.8524 22.724C19.5935 22.6281 19.4613 22.3404 19.5572 22.0815C19.6531 21.8225 19.9407 21.6903 20.1997 21.7862L19.8524 22.724ZM25.7441 23.762C26.0053 23.8514 26.1445 24.1358 26.0551 24.397C25.9656 24.6582 25.6813 24.7975 25.42 24.708L25.7441 23.762ZM31.0349 26.5543C30.7716 26.4712 30.6254 26.1904 30.7084 25.9271C30.7914 25.6637 31.0722 25.5175 31.3356 25.6005L31.0349 26.5543ZM36.97 27.3005C37.2354 27.377 37.3884 27.6541 37.3119 27.9194C37.2354 28.1848 36.9583 28.3379 36.693 28.2614L36.97 27.3005ZM42.3915 29.8286C42.1244 29.7586 41.9645 29.4854 42.0345 29.2182C42.1044 28.9511 42.3777 28.7912 42.6448 28.8612L42.3915 29.8286ZM48.3566 30.2816C48.6253 30.345 48.7919 30.6142 48.7285 30.883C48.6652 31.1518 48.396 31.3183 48.1272 31.255L48.3566 30.2816ZM53.8965 32.5398C53.6263 32.4831 53.4531 32.2181 53.5098 31.9478C53.5665 31.6776 53.8316 31.5044 54.1019 31.5611L53.8965 32.5398ZM59.8768 32.699C60.1483 32.749 60.3279 33.0097 60.2779 33.2813C60.2278 33.5529 59.9671 33.7324 59.6955 33.6824L59.8768 32.699ZM65.5201 34.6821C65.2474 34.6387 65.0615 34.3825 65.1049 34.1098C65.1482 33.8371 65.4045 33.6511 65.6772 33.6945L65.5201 34.6821ZM71.5006 34.5477C71.7743 34.5843 71.9665 34.836 71.9298 35.1097C71.8931 35.3833 71.6415 35.5755 71.3678 35.5388L71.5006 34.5477ZM77.2351 36.2523C76.9606 36.2223 76.7624 35.9755 76.7924 35.701C76.8224 35.4265 77.0692 35.2283 77.3437 35.2582L77.2351 36.2523ZM83.2027 35.8261C83.4778 35.8494 83.682 36.0914 83.6587 36.3665C83.6354 36.6417 83.3935 36.8459 83.1183 36.8226L83.2027 35.8261ZM89.0122 37.2496C88.7366 37.233 88.5266 36.9961 88.5432 36.7204C88.5598 36.4448 88.7967 36.2348 89.0724 36.2514L89.0122 37.2496ZM94.9513 36.5345C95.2273 36.5444 95.4429 36.7762 95.433 37.0521C95.423 37.3281 95.1913 37.5438 94.9153 37.5338L94.9513 36.5345ZM100.824 37.6757C100.548 37.6723 100.327 37.4458 100.33 37.1697C100.334 36.8936 100.56 36.6724 100.836 36.6757L100.824 37.6757ZM106.724 36.6757C107 36.6724 107.226 36.8936 107.23 37.1697C107.233 37.4458 107.012 37.6723 106.736 37.6757L106.724 36.6757ZM112.645 37.5338C112.369 37.5438 112.137 37.3281 112.127 37.0521C112.117 36.7762 112.333 36.5444 112.609 36.5345L112.645 37.5338ZM118.488 36.2514C118.763 36.2348 119 36.4448 119.017 36.7204C119.033 36.9961 118.823 37.233 118.548 37.2496L118.488 36.2514ZM124.442 36.8226C124.166 36.8459 123.925 36.6417 123.901 36.3665C123.878 36.0914 124.082 35.8494 124.357 35.8261L124.442 36.8226ZM130.216 35.2582C130.491 35.2283 130.738 35.4265 130.768 35.701C130.798 35.9755 130.599 36.2223 130.325 36.2523L130.216 35.2582ZM136.192 35.5388C135.918 35.5755 135.667 35.3833 135.63 35.1097C135.594 34.836 135.786 34.5843 136.059 34.5477L136.192 35.5388ZM141.883 33.6945C142.156 33.6511 142.412 33.8371 142.455 34.1098C142.498 34.3825 142.313 34.6387 142.04 34.6821L141.883 33.6945ZM147.864 33.6824C147.593 33.7324 147.332 33.5529 147.282 33.2813C147.232 33.0097 147.412 32.749 147.683 32.699L147.864 33.6824ZM153.458 31.5611C153.728 31.5044 153.993 31.6776 154.05 31.9478C154.107 32.2181 153.934 32.4831 153.663 32.5398L153.458 31.5611ZM159.433 31.255C159.164 31.3183 158.895 31.1518 158.831 30.883C158.768 30.6142 158.935 30.345 159.203 30.2816L159.433 31.255ZM164.915 28.8612C165.182 28.7912 165.456 28.9511 165.526 29.2182C165.595 29.4854 165.436 29.7586 165.168 29.8286L164.915 28.8612ZM170.867 28.2614C170.602 28.3379 170.325 28.1848 170.248 27.9194C170.172 27.6541 170.325 27.377 170.59 27.3005L170.867 28.2614ZM176.224 25.6005C176.488 25.5175 176.769 25.6637 176.852 25.9271C176.935 26.1904 176.788 26.4712 176.525 26.5543L176.224 25.6005ZM182.14 24.708C181.879 24.7975 181.594 24.6582 181.505 24.397C181.415 24.1358 181.555 23.8514 181.816 23.762L182.14 24.708ZM187.36 21.7862C187.619 21.6903 187.907 21.8225 188.003 22.0815C188.099 22.3404 187.967 22.6281 187.708 22.724L187.36 21.7862ZM193.224 20.6035C192.968 20.7057 192.677 20.5806 192.575 20.3241C192.473 20.0676 192.598 19.7768 192.854 19.6745L193.224 20.6035ZM198.294 17.4283C198.548 17.3198 198.842 17.4377 198.951 17.6916C199.059 17.9455 198.941 18.2393 198.687 18.3479L198.294 17.4283ZM204.093 15.9586C203.842 16.0733 203.545 15.9627 203.43 15.7115C203.316 15.4603 203.426 15.1637 203.677 15.049L204.093 15.9586ZM1.21331 13.8099C2.1001 14.2282 2.98985 14.6412 3.88253 15.049L3.46705 15.9586C2.57064 15.5491 1.67718 15.1343 0.786687 14.7143L1.21331 13.8099ZM9.26568 17.4283C11.0679 18.1985 12.8813 18.9474 14.7058 19.6745L14.3356 20.6035C12.5035 19.8733 10.6824 19.1213 8.87269 18.3479L9.26568 17.4283ZM20.1997 21.7862C22.0373 22.4667 23.8856 23.1254 25.7441 23.762L25.42 24.708C23.5537 24.0687 21.6978 23.4073 19.8524 22.724L20.1997 21.7862ZM31.3356 25.6005C33.204 26.1895 35.0822 26.7562 36.97 27.3005L36.693 28.2614C34.7973 27.7148 32.9112 27.1457 31.0349 26.5543L31.3356 25.6005ZM42.6448 28.8612C44.5397 29.3573 46.4437 29.8309 48.3566 30.2816L48.1272 31.255C46.2064 30.8023 44.2944 30.3268 42.3915 29.8286L42.6448 28.8612ZM54.1019 31.5611C56.0185 31.9633 57.9436 32.3427 59.8768 32.699L59.6955 33.6824C57.7543 33.3246 55.8212 32.9437 53.8965 32.5398L54.1019 31.5611ZM65.6772 33.6945C67.6108 34.002 69.552 34.2865 71.5006 34.5477L71.3678 35.5388C69.4111 35.2765 67.4617 34.9909 65.5201 34.6821L65.6772 33.6945ZM77.3437 35.2582C79.2898 35.4708 81.2429 35.6602 83.2027 35.8261L83.1183 36.8226C81.1505 36.656 79.1893 36.4658 77.2351 36.2523L77.3437 35.2582ZM89.0724 36.2514C91.0258 36.3691 92.9856 36.4636 94.9513 36.5345L94.9153 37.5338C92.9415 37.4626 90.9737 37.3678 89.0122 37.2496L89.0724 36.2514ZM100.836 36.6757C101.816 36.6875 102.797 36.6934 103.78 36.6934V37.6934C102.793 37.6934 101.808 37.6874 100.824 37.6757L100.836 36.6757ZM103.78 36.6934C104.763 36.6934 105.744 36.6875 106.724 36.6757L106.736 37.6757C105.752 37.6874 104.767 37.6934 103.78 37.6934V36.6934ZM112.609 36.5345C114.574 36.4636 116.534 36.3691 118.488 36.2514L118.548 37.2496C116.586 37.3678 114.618 37.4626 112.645 37.5338L112.609 36.5345ZM124.357 35.8261C126.317 35.6602 128.27 35.4708 130.216 35.2582L130.325 36.2523C128.371 36.4658 126.41 36.656 124.442 36.8226L124.357 35.8261ZM136.059 34.5477C138.008 34.2865 139.949 34.002 141.883 33.6945L142.04 34.6821C140.098 34.9909 138.149 35.2765 136.192 35.5388L136.059 34.5477ZM147.683 32.699C149.616 32.3427 151.541 31.9633 153.458 31.5611L153.663 32.5398C151.739 32.9437 149.806 33.3246 147.864 33.6824L147.683 32.699ZM159.203 30.2816C161.116 29.8309 163.02 29.3573 164.915 28.8612L165.168 29.8286C163.266 30.3268 161.354 30.8023 159.433 31.255L159.203 30.2816ZM170.59 27.3005C172.478 26.7562 174.356 26.1895 176.224 25.6005L176.525 26.5543C174.649 27.1457 172.763 27.7148 170.867 28.2614L170.59 27.3005ZM181.816 23.762C183.674 23.1254 185.523 22.4667 187.36 21.7862L187.708 22.724C185.862 23.4073 184.006 24.0687 182.14 24.708L181.816 23.762ZM192.854 19.6745C194.679 18.9474 196.492 18.1985 198.294 17.4283L198.687 18.3479C196.878 19.1213 195.057 19.8733 193.224 20.6035L192.854 19.6745ZM203.677 15.049C204.57 14.6412 205.46 14.2282 206.347 13.8099L206.773 14.7143C205.883 15.1343 204.989 15.5491 204.093 15.9586L203.677 15.049ZM0.573374 15.1665C0.0738719 14.9309 -0.140047 14.335 0.0955721 13.8355C0.331191 13.336 0.927125 13.122 1.42663 13.3577L0.573374 15.1665ZM4.09027 14.5942C4.59263 14.8236 4.81386 15.4169 4.58439 15.9193C4.35493 16.4216 3.76167 16.6428 3.25931 16.4134L4.09027 14.5942ZM8.6762 18.8076C8.16835 18.5906 7.9326 18.0029 8.14964 17.4951C8.36669 16.9872 8.95433 16.7515 9.46218 16.9685L8.6762 18.8076ZM14.8909 19.2101C15.404 19.4145 15.6541 19.9962 15.4496 20.5092C15.2451 21.0223 14.6635 21.2724 14.1504 21.0679L14.8909 19.2101ZM19.6788 23.1929C19.1609 23.0011 18.8965 22.4257 19.0883 21.9078C19.2801 21.3899 19.8554 21.1255 20.3733 21.3173L19.6788 23.1929ZM25.9061 23.2889C26.4286 23.4679 26.707 24.0365 26.5281 24.559C26.3491 25.0815 25.7805 25.36 25.258 25.181L25.9061 23.2889ZM30.8846 27.0311C30.3579 26.8651 30.0655 26.3035 30.2315 25.7768C30.3975 25.25 30.9591 24.9576 31.4859 25.1236L30.8846 27.0311ZM37.1085 26.8201C37.6392 26.9731 37.9454 27.5273 37.7924 28.058C37.6394 28.5886 37.0851 28.8948 36.5545 28.7418L37.1085 26.8201ZM42.2649 30.3123C41.7306 30.1724 41.4109 29.6259 41.5508 29.0916C41.6907 28.5573 42.2372 28.2376 42.7714 28.3775L42.2649 30.3123ZM48.4712 29.795C49.0088 29.9217 49.3419 30.4601 49.2152 30.9977C49.0885 31.5352 48.5501 31.8683 48.0125 31.7416L48.4712 29.795ZM53.7938 33.0292C53.2533 32.9158 52.9071 32.3856 53.0205 31.8451C53.1339 31.3046 53.664 30.9584 54.2045 31.0718L53.7938 33.0292ZM59.9674 32.2072C60.5105 32.3073 60.8697 32.8288 60.7696 33.3719C60.6695 33.9151 60.148 34.2742 59.6049 34.1741L59.9674 32.2072ZM65.4416 35.1759C64.8962 35.0891 64.5243 34.5767 64.6111 34.0312C64.6978 33.4858 65.2103 33.114 65.7557 33.2007L65.4416 35.1759ZM71.5671 34.0521C72.1144 34.1255 72.4987 34.6287 72.4254 35.1761C72.352 35.7235 71.8488 36.1077 71.3014 36.0344L71.5671 34.0521ZM77.1808 36.7494C76.6318 36.6894 76.2354 36.1957 76.2954 35.6467C76.3553 35.0977 76.849 34.7012 77.398 34.7612L77.1808 36.7494ZM83.2449 35.3279C83.7952 35.3745 84.2035 35.8584 84.1569 36.4087C84.1103 36.959 83.6265 37.3674 83.0761 37.3208L83.2449 35.3279ZM88.9821 37.7487C88.4309 37.7155 88.0109 37.2416 88.0441 36.6903C88.0773 36.139 88.5512 35.7191 89.1025 35.7523L88.9821 37.7487ZM94.9693 36.0348C95.5213 36.0547 95.9526 36.5182 95.9327 37.0702C95.9128 37.6221 95.4492 38.0534 94.8973 38.0335L94.9693 36.0348ZM100.818 38.1756C100.266 38.169 99.8237 37.716 99.8303 37.1637C99.837 36.6115 100.29 36.1691 100.842 36.1758L100.818 38.1756ZM106.718 36.1758C107.27 36.1691 107.723 36.6115 107.73 37.1637C107.736 37.716 107.294 38.169 106.742 38.1756L106.718 36.1758ZM112.663 38.0335C112.111 38.0534 111.647 37.6221 111.627 37.0702C111.607 36.5182 112.039 36.0547 112.591 36.0348L112.663 38.0335ZM118.458 35.7523C119.009 35.7191 119.483 36.139 119.516 36.6903C119.549 37.2416 119.129 37.7155 118.578 37.7487L118.458 35.7523ZM124.484 37.3208C123.934 37.3674 123.45 36.959 123.403 36.4087C123.356 35.8584 123.765 35.3745 124.315 35.3279L124.484 37.3208ZM130.162 34.7612C130.711 34.7012 131.205 35.0977 131.265 35.6467C131.325 36.1957 130.928 36.6894 130.379 36.7494L130.162 34.7612ZM136.259 36.0344C135.711 36.1077 135.208 35.7235 135.135 35.1761C135.061 34.6287 135.446 34.1255 135.993 34.0521L136.259 36.0344ZM141.804 33.2007C142.35 33.114 142.862 33.4858 142.949 34.0312C143.036 34.5767 142.664 35.0891 142.118 35.1759L141.804 33.2007ZM147.955 34.1741C147.412 34.2742 146.89 33.9151 146.79 33.3719C146.69 32.8288 147.049 32.3073 147.593 32.2072L147.955 34.1741ZM153.355 31.0718C153.896 30.9584 154.426 31.3046 154.539 31.8451C154.653 32.3856 154.307 32.9158 153.766 33.0292L153.355 31.0718ZM159.547 31.7416C159.01 31.8683 158.471 31.5352 158.345 30.9977C158.218 30.4601 158.551 29.9217 159.089 29.795L159.547 31.7416ZM164.789 28.3775C165.323 28.2376 165.869 28.5573 166.009 29.0916C166.149 29.6259 165.829 30.1724 165.295 30.3123L164.789 28.3775ZM171.006 28.7418C170.475 28.8948 169.921 28.5886 169.768 28.058C169.615 27.5273 169.921 26.9731 170.451 26.8201L171.006 28.7418ZM176.074 25.1236C176.601 24.9576 177.162 25.25 177.328 25.7768C177.495 26.3035 177.202 26.8651 176.675 27.0311L176.074 25.1236ZM182.302 25.181C181.779 25.36 181.211 25.0815 181.032 24.559C180.853 24.0365 181.131 23.4679 181.654 23.2889L182.302 25.181ZM187.187 21.3173C187.705 21.1255 188.28 21.3899 188.472 21.9078C188.663 22.4258 188.399 23.0011 187.881 23.1929L187.187 21.3173ZM193.41 21.0679C192.896 21.2724 192.315 21.0223 192.11 20.5093C191.906 19.9962 192.156 19.4146 192.669 19.2101L193.41 21.0679ZM198.098 16.9685C198.606 16.7515 199.193 16.9872 199.41 17.4951C199.627 18.0029 199.392 18.5906 198.884 18.8076L198.098 16.9685ZM204.301 16.4134C203.798 16.6428 203.205 16.4216 202.976 15.9193C202.746 15.4169 202.967 14.8236 203.47 14.5942L204.301 16.4134ZM1.42663 13.3577C2.31156 13.7751 3.19946 14.1873 4.09027 14.5942L3.25931 16.4134C2.36104 16.0031 1.46571 15.5874 0.573374 15.1665L1.42663 13.3577ZM9.46218 16.9685C11.2606 17.7371 13.0703 18.4844 14.8909 19.2101L14.1504 21.0679C12.3145 20.3362 10.4897 19.5827 8.6762 18.8076L9.46218 16.9685ZM20.3733 21.3173C22.2071 21.9964 24.0515 22.6537 25.9061 23.2889L25.258 25.181C23.3878 24.5404 21.528 23.8776 19.6788 23.1929L20.3733 21.3173ZM31.4859 25.1236C33.3504 25.7113 35.2247 26.2769 37.1085 26.8201L36.5545 28.7418C34.6548 28.1941 32.7648 27.6238 30.8846 27.0311L31.4859 25.1236ZM42.7714 28.3775C44.6624 28.8725 46.5624 29.3451 48.4712 29.795L48.0125 31.7416C46.0877 31.288 44.1717 30.8115 42.2649 30.3123L42.7714 28.3775ZM54.2045 31.0718C56.1172 31.4731 58.0383 31.8517 59.9674 32.2072L59.6049 34.1741C57.6596 33.8156 55.7225 33.4339 53.7938 33.0292L54.2045 31.0718ZM65.7557 33.2007C67.6853 33.5076 69.6225 33.7915 71.5671 34.0521L71.3014 36.0344C69.3406 35.7716 67.3872 35.4853 65.4416 35.1759L65.7557 33.2007ZM77.398 34.7612C79.3401 34.9734 81.2891 35.1624 83.2449 35.3279L83.0761 37.3208C81.1042 37.1539 79.139 36.9633 77.1808 36.7494L77.398 34.7612ZM89.1025 35.7523C91.0519 35.8698 93.0076 35.9641 94.9693 36.0348L94.8973 38.0335C92.9194 37.9622 90.9476 37.8671 88.9821 37.7487L89.1025 35.7523ZM100.842 36.1758C101.82 36.1875 102.799 36.1934 103.78 36.1934V38.1934C102.791 38.1934 101.804 38.1874 100.818 38.1756L100.842 36.1758ZM103.78 36.1934C104.761 36.1934 105.74 36.1875 106.718 36.1758L106.742 38.1756C105.756 38.1874 104.769 38.1934 103.78 38.1934V36.1934ZM112.591 36.0348C114.552 35.9641 116.508 35.8698 118.458 35.7523L118.578 37.7487C116.612 37.8672 114.641 37.9622 112.663 38.0335L112.591 36.0348ZM124.315 35.3279C126.271 35.1624 128.22 34.9734 130.162 34.7612L130.379 36.7494C128.421 36.9633 126.456 37.1539 124.484 37.3208L124.315 35.3279ZM135.993 34.0521C137.938 33.7915 139.875 33.5076 141.804 33.2007L142.118 35.1759C140.173 35.4853 138.219 35.7716 136.259 36.0344L135.993 34.0521ZM147.593 32.2072C149.522 31.8517 151.443 31.4731 153.355 31.0718L153.766 33.0292C151.837 33.4339 149.9 33.8156 147.955 34.1741L147.593 32.2072ZM159.089 29.795C160.998 29.3451 162.898 28.8725 164.789 28.3775L165.295 30.3123C163.388 30.8115 161.472 31.288 159.547 31.7416L159.089 29.795ZM170.451 26.8201C172.335 26.2769 174.21 25.7113 176.074 25.1236L176.675 27.0311C174.795 27.6238 172.905 28.1941 171.006 28.7418L170.451 26.8201ZM181.654 23.2889C183.508 22.6537 185.353 21.9964 187.187 21.3173L187.881 23.1929C186.032 23.8776 184.172 24.5404 182.302 25.181L181.654 23.2889ZM192.669 19.2101C194.49 18.4844 196.299 17.7371 198.098 16.9685L198.884 18.8076C197.07 19.5827 195.245 20.3362 193.41 21.0679L192.669 19.2101ZM203.47 14.5942C204.361 14.1873 205.248 13.7751 206.133 13.3577L206.987 15.1665C206.094 15.5874 205.199 16.0031 204.301 16.4134L203.47 14.5942Z" fill="#E64141"/>
<path d="M208.87 9.34848L208.591 13.6275C208.571 13.9319 208.861 14.158 209.148 14.0627L214.018 12.4542C214.018 12.4542 210.741 9.37841 210.707 9.46226C210.674 9.54611 208.87 9.34848 208.87 9.34848Z" fill="#B5D1DB"/>
<path d="M221.409 5.88316C218.641 5.8937 209.665 6.03872 206.267 6.09423C205.817 6.10195 205.619 6.67042 205.965 6.95543L208.87 9.35008L208.592 13.6147C208.581 13.7866 208.665 13.9336 208.793 14.0139C208.897 14.0798 210.285 11.0617 210.285 11.0617C210.285 11.0617 212.744 15.0801 213.913 16.9794C214.2 17.4471 214.876 17.4487 215.173 16.982C216.692 14.5954 220.49 8.62811 221.789 6.58727C221.984 6.28018 221.769 5.88021 221.409 5.88214L221.409 5.88316Z" fill="#E64141"/>
<path d="M208.793 14.0148C208.897 14.0806 210.285 11.0626 210.285 11.0626L218.208 7.8693C218.262 7.8481 218.239 7.76693 218.183 7.77653L208.87 9.34955L208.591 13.6141C208.58 13.786 208.664 13.933 208.792 14.0133L208.793 14.0148Z" fill="#D6E2EA"/>
</svg>
