<svg width="24" height="24" viewBox="0 0 24 24" fill="none" xmlns="http://www.w3.org/2000/svg">
<mask id="path-1-inside-1_528_8134" fill="white">
<path d="M12 2C9.43639 2.00731 6.97349 2.99891 5.12 4.77V3C5.12 2.73478 5.01464 2.48043 4.82711 2.29289C4.63957 2.10536 4.38522 2 4.12 2C3.85478 2 3.60043 2.10536 3.41289 2.29289C3.22536 2.48043 3.12 2.73478 3.12 3V7.5C3.12 7.76522 3.22536 8.01957 3.41289 8.20711C3.60043 8.39464 3.85478 8.5 4.12 8.5H8.62C8.88522 8.5 9.13957 8.39464 9.32711 8.20711C9.51464 8.01957 9.62 7.76522 9.62 7.5C9.62 7.23478 9.51464 6.98043 9.32711 6.79289C9.13957 6.60536 8.88522 6.5 8.62 6.5H6.22C7.50578 5.15636 9.21951 4.30265 11.0665 4.08567C12.9136 3.86868 14.7785 4.30198 16.3407 5.31104C17.9028 6.32011 19.0646 7.84191 19.6263 9.61479C20.188 11.3877 20.1145 13.3009 19.4184 15.0254C18.7223 16.7499 17.4472 18.1781 15.8122 19.0643C14.1772 19.9505 12.2845 20.2394 10.4596 19.8813C8.63463 19.5232 6.99147 18.5405 5.81259 17.1022C4.63372 15.6638 3.99279 13.8597 4 12C4 11.7348 3.89464 11.4804 3.70711 11.2929C3.51957 11.1054 3.26522 11 3 11C2.73478 11 2.48043 11.1054 2.29289 11.2929C2.10536 11.4804 2 11.7348 2 12C2 13.9778 2.58649 15.9112 3.6853 17.5557C4.78412 19.2002 6.3459 20.4819 8.17317 21.2388C10.0004 21.9957 12.0111 22.1937 13.9509 21.8079C15.8907 21.422 17.6725 20.4696 19.0711 19.0711C20.4696 17.6725 21.422 15.8907 21.8079 13.9509C22.1937 12.0111 21.9957 10.0004 21.2388 8.17317C20.4819 6.3459 19.2002 4.78412 17.5557 3.6853C15.9112 2.58649 13.9778 2 12 2ZM12 8C11.7348 8 11.4804 8.10536 11.2929 8.29289C11.1054 8.48043 11 8.73478 11 9V12C11 12.2652 11.1054 12.5196 11.2929 12.7071C11.4804 12.8946 11.7348 13 12 13H14C14.2652 13 14.5196 12.8946 14.7071 12.7071C14.8946 12.5196 15 12.2652 15 12C15 11.7348 14.8946 11.4804 14.7071 11.2929C14.5196 11.1054 14.2652 11 14 11H13V9C13 8.73478 12.8946 8.48043 12.7071 8.29289C12.5196 8.10536 12.2652 8 12 8Z"/>
</mask>
<path d="M12 2C9.43639 2.00731 6.97349 2.99891 5.12 4.77V3C5.12 2.73478 5.01464 2.48043 4.82711 2.29289C4.63957 2.10536 4.38522 2 4.12 2C3.85478 2 3.60043 2.10536 3.41289 2.29289C3.22536 2.48043 3.12 2.73478 3.12 3V7.5C3.12 7.76522 3.22536 8.01957 3.41289 8.20711C3.60043 8.39464 3.85478 8.5 4.12 8.5H8.62C8.88522 8.5 9.13957 8.39464 9.32711 8.20711C9.51464 8.01957 9.62 7.76522 9.62 7.5C9.62 7.23478 9.51464 6.98043 9.32711 6.79289C9.13957 6.60536 8.88522 6.5 8.62 6.5H6.22C7.50578 5.15636 9.21951 4.30265 11.0665 4.08567C12.9136 3.86868 14.7785 4.30198 16.3407 5.31104C17.9028 6.32011 19.0646 7.84191 19.6263 9.61479C20.188 11.3877 20.1145 13.3009 19.4184 15.0254C18.7223 16.7499 17.4472 18.1781 15.8122 19.0643C14.1772 19.9505 12.2845 20.2394 10.4596 19.8813C8.63463 19.5232 6.99147 18.5405 5.81259 17.1022C4.63372 15.6638 3.99279 13.8597 4 12C4 11.7348 3.89464 11.4804 3.70711 11.2929C3.51957 11.1054 3.26522 11 3 11C2.73478 11 2.48043 11.1054 2.29289 11.2929C2.10536 11.4804 2 11.7348 2 12C2 13.9778 2.58649 15.9112 3.6853 17.5557C4.78412 19.2002 6.3459 20.4819 8.17317 21.2388C10.0004 21.9957 12.0111 22.1937 13.9509 21.8079C15.8907 21.422 17.6725 20.4696 19.0711 19.0711C20.4696 17.6725 21.422 15.8907 21.8079 13.9509C22.1937 12.0111 21.9957 10.0004 21.2388 8.17317C20.4819 6.3459 19.2002 4.78412 17.5557 3.6853C15.9112 2.58649 13.9778 2 12 2ZM12 8C11.7348 8 11.4804 8.10536 11.2929 8.29289C11.1054 8.48043 11 8.73478 11 9V12C11 12.2652 11.1054 12.5196 11.2929 12.7071C11.4804 12.8946 11.7348 13 12 13H14C14.2652 13 14.5196 12.8946 14.7071 12.7071C14.8946 12.5196 15 12.2652 15 12C15 11.7348 14.8946 11.4804 14.7071 11.2929C14.5196 11.1054 14.2652 11 14 11H13V9C13 8.73478 12.8946 8.48043 12.7071 8.29289C12.5196 8.10536 12.2652 8 12 8Z" fill="#3C3C3C"/>
<path d="M12 2L12 -2.00002L11.9886 -1.99998L12 2ZM5.12 4.77H1.12V14.1247L7.88341 7.66198L5.12 4.77ZM4.12 2L4.12 -2L4.12 2ZM3.12 3H-0.88H3.12ZM3.12 7.5L-0.88 7.5L3.12 7.5ZM6.22 6.5L3.33003 3.73448L-3.14413 10.5H6.22V6.5ZM4 12L7.99997 12.0155L8 12.0078V12L4 12ZM2 12L-2 12L2 12ZM12 8L12 12L12 8ZM13 11H9V15H13V11ZM11.9886 -1.99998C8.39953 -1.98975 4.95148 -0.601504 2.35659 1.87802L7.88341 7.66198C8.9955 6.59933 10.4732 6.00437 12.0114 5.99998L11.9886 -1.99998ZM9.12 4.77V3H1.12V4.77H9.12ZM9.12 3C9.12 1.67392 8.59322 0.40215 7.65553 -0.535534L1.99868 5.12132C1.43607 4.55871 1.12 3.79565 1.12 3H9.12ZM7.65553 -0.535534C6.71785 -1.47322 5.44608 -2 4.12 -2L4.12 6C3.32435 6 2.56129 5.68393 1.99868 5.12132L7.65553 -0.535534ZM4.12 -2C2.79392 -2 1.52215 -1.47322 0.584466 -0.535534L6.24132 5.12132C5.67871 5.68393 4.91565 6 4.12 6L4.12 -2ZM0.584466 -0.535534C-0.353214 0.402147 -0.88 1.67392 -0.88 3L7.12 3C7.12 3.79565 6.80393 4.55871 6.24132 5.12132L0.584466 -0.535534ZM-0.88 3V7.5H7.12V3H-0.88ZM-0.88 7.5C-0.88 8.82609 -0.353214 10.0979 0.584466 11.0355L6.24132 5.37868C6.80393 5.94129 7.12 6.70435 7.12 7.5L-0.88 7.5ZM0.584466 11.0355C1.52215 11.9732 2.79391 12.5 4.12 12.5V4.5C4.91565 4.5 5.67871 4.81607 6.24132 5.37868L0.584466 11.0355ZM4.12 12.5H8.62V4.5H4.12V12.5ZM8.62 12.5C9.94609 12.5 11.2179 11.9732 12.1555 11.0355L6.49868 5.37868C7.06129 4.81607 7.82435 4.5 8.62 4.5V12.5ZM12.1555 11.0355C13.0932 10.0979 13.62 8.82609 13.62 7.5H5.62C5.62 6.70435 5.93607 5.94129 6.49868 5.37868L12.1555 11.0355ZM13.62 7.5C13.62 6.17391 13.0932 4.90215 12.1555 3.96447L6.49868 9.62132C5.93607 9.05871 5.62 8.29565 5.62 7.5H13.62ZM12.1555 3.96447C11.2179 3.02679 9.94609 2.5 8.62 2.5V10.5C7.82435 10.5 7.06129 10.1839 6.49868 9.62132L12.1555 3.96447ZM8.62 2.5H6.22V10.5H8.62V2.5ZM9.10997 9.26552C9.75286 8.59369 10.6097 8.16684 11.5332 8.05835L10.5998 0.112989C7.82929 0.438467 5.2587 1.71902 3.33003 3.73448L9.10997 9.26552ZM11.5332 8.05835C12.4568 7.94986 13.3892 8.1665 14.1703 8.67104L18.511 1.95105C16.1678 0.437447 13.3704 -0.212489 10.5998 0.112989L11.5332 8.05835ZM14.1703 8.67104C14.9514 9.17557 15.5323 9.93647 15.8131 10.8229L23.4395 8.40667C22.597 5.74735 20.8543 3.46466 18.511 1.95105L14.1703 8.67104ZM15.8131 10.8229C16.094 11.7093 16.0572 12.6659 15.7092 13.5282L23.1277 16.5226C24.1718 13.9358 24.2821 11.066 23.4395 8.40667L15.8131 10.8229ZM15.7092 13.5282C15.3611 14.3905 14.7235 15.1046 13.906 15.5477L17.7183 22.5809C20.1708 21.2516 22.0835 19.1094 23.1277 16.5226L15.7092 13.5282ZM13.906 15.5477C13.0886 15.9908 12.1422 16.1352 11.2297 15.9562L9.68936 23.8065C12.4268 24.3436 15.2658 23.9103 17.7183 22.5809L13.906 15.5477ZM11.2297 15.9562C10.3173 15.7771 9.4957 15.2858 8.90627 14.5666L2.71892 19.6378C4.48723 21.7953 6.95197 23.2694 9.68936 23.8065L11.2297 15.9562ZM8.90627 14.5666C8.31683 13.8474 7.99636 12.9454 7.99997 12.0155L3.009e-05 11.9845C-0.0107901 14.7741 0.950604 17.4803 2.71892 19.6378L8.90627 14.5666ZM8 12C8 10.6739 7.47322 9.40215 6.53553 8.46447L0.87868 14.1213C0.316071 13.5587 0 12.7956 0 12L8 12ZM6.53553 8.46447C5.59785 7.52679 4.32608 7 3 7V15C2.20435 15 1.44129 14.6839 0.87868 14.1213L6.53553 8.46447ZM3 7C1.67392 7 0.402147 7.52679 -0.535534 8.46447L5.12132 14.1213C4.55871 14.6839 3.79565 15 3 15V7ZM-0.535534 8.46447C-1.47322 9.40215 -2 10.6739 -2 12L6 12C6 12.7956 5.68393 13.5587 5.12132 14.1213L-0.535534 8.46447ZM-2 12C-2 14.7689 -1.17891 17.4757 0.359425 19.778L7.01118 15.3334C6.35189 14.3467 6 13.1867 6 12L-2 12ZM0.359425 19.778C1.89776 22.0803 4.08426 23.8747 6.64243 24.9343L9.7039 17.5433C8.60754 17.0892 7.67047 16.3201 7.01118 15.3334L0.359425 19.778ZM6.64243 24.9343C9.2006 25.9939 12.0155 26.2712 14.7313 25.731L13.1705 17.8847C12.0067 18.1162 10.8003 17.9974 9.7039 17.5433L6.64243 24.9343ZM14.7313 25.731C17.447 25.1908 19.9416 23.8574 21.8995 21.8995L16.2426 16.2426C15.4035 17.0818 14.3344 17.6532 13.1705 17.8847L14.7313 25.731ZM21.8995 21.8995C23.8574 19.9416 25.1908 17.447 25.731 14.7313L17.8847 13.1705C17.6532 14.3344 17.0818 15.4035 16.2426 16.2426L21.8995 21.8995ZM25.731 14.7313C26.2712 12.0155 25.9939 9.2006 24.9343 6.64243L17.5433 9.7039C17.9974 10.8003 18.1162 12.0067 17.8847 13.1705L25.731 14.7313ZM24.9343 6.64243C23.8747 4.08426 22.0803 1.89776 19.778 0.359425L15.3334 7.01118C16.3201 7.67047 17.0892 8.60754 17.5433 9.7039L24.9343 6.64243ZM19.778 0.359425C17.4757 -1.17891 14.7689 -2 12 -2L12 6C13.1867 6 14.3467 6.35189 15.3334 7.01118L19.778 0.359425ZM12 4C10.6739 4 9.40215 4.52679 8.46447 5.46447L14.1213 11.1213C13.5587 11.6839 12.7957 12 12 12L12 4ZM8.46447 5.46447C7.52679 6.40215 7 7.67391 7 9H15C15 9.79565 14.6839 10.5587 14.1213 11.1213L8.46447 5.46447ZM7 9V12H15V9H7ZM7 12C7 13.3261 7.52679 14.5979 8.46447 15.5355L14.1213 9.87868C14.6839 10.4413 15 11.2043 15 12H7ZM8.46447 15.5355C9.40215 16.4732 10.6739 17 12 17V9C12.7957 9 13.5587 9.31607 14.1213 9.87868L8.46447 15.5355ZM12 17H14V9H12V17ZM14 17C15.3261 17 16.5979 16.4732 17.5355 15.5355L11.8787 9.87868C12.4413 9.31607 13.2043 9 14 9V17ZM17.5355 15.5355C18.4732 14.5979 19 13.3261 19 12H11C11 11.2043 11.3161 10.4413 11.8787 9.87868L17.5355 15.5355ZM19 12C19 10.6739 18.4732 9.40215 17.5355 8.46447L11.8787 14.1213C11.3161 13.5587 11 12.7957 11 12H19ZM17.5355 8.46447C16.5979 7.52679 15.3261 7 14 7V15C13.2043 15 12.4413 14.6839 11.8787 14.1213L17.5355 8.46447ZM14 7H13V15H14V7ZM17 11V9H9V11H17ZM17 9C17 7.67391 16.4732 6.40215 15.5355 5.46447L9.87868 11.1213C9.31607 10.5587 9 9.79565 9 9H17ZM15.5355 5.46447C14.5979 4.52679 13.3261 4 12 4L12 12C11.2043 12 10.4413 11.6839 9.87868 11.1213L15.5355 5.46447Z" fill="#3C3C3C" mask="url(#path-1-inside-1_528_8134)"/>
</svg>
