<svg width="40" height="40" viewBox="0 0 40 40" fill="none" xmlns="http://www.w3.org/2000/svg">
<rect width="40" height="40" rx="10" fill="#0A599A"/>
<path d="M20 15.75C18.11 15.75 17.75 16.54 17.75 18V18.62H22.25V18C22.25 16.54 21.89 15.75 20 15.75Z" fill="white"/>
<path d="M20.0004 23.1004C20.6079 23.1004 21.1004 22.6079 21.1004 22.0004C21.1004 21.3929 20.6079 20.9004 20.0004 20.9004C19.3929 20.9004 18.9004 21.3929 18.9004 22.0004C18.9004 22.6079 19.3929 23.1004 20.0004 23.1004Z" fill="white"/>
<path d="M20 10C14.48 10 10 14.48 10 20C10 25.52 14.48 30 20 30C25.52 30 30 25.52 30 20C30 14.48 25.52 10 20 10ZM25.38 22.5C25.38 24.7 24.7 25.38 22.5 25.38H17.5C15.3 25.38 14.62 24.7 14.62 22.5V21.5C14.62 19.79 15.03 19 16.25 18.73V18C16.25 17.07 16.25 14.25 20 14.25C23.75 14.25 23.75 17.07 23.75 18V18.73C24.97 19 25.38 19.79 25.38 21.5V22.5Z" fill="white"/>
</svg>
