<svg width="40" height="40" viewBox="0 0 40 40" fill="none" xmlns="http://www.w3.org/2000/svg">
<rect width="40" height="40" rx="10" fill="#0A599A"/>
<path d="M24.19 10H15.81C12.17 10 10 12.17 10 15.81V24.18C10 27.83 12.17 30 15.81 30H24.18C27.82 30 29.99 27.83 29.99 24.19V15.81C30 12.17 27.83 10 24.19 10ZM16.5 14.38C17.53 14.38 18.38 15.22 18.38 16.26C18.38 17.3 17.54 18.14 16.5 18.14C15.46 18.14 14.62 17.28 14.62 16.25C14.62 15.22 15.47 14.38 16.5 14.38ZM20 27.08C17.31 27.08 15.12 24.89 15.12 22.2C15.12 21.5 15.69 20.92 16.39 20.92H23.59C24.29 20.92 24.86 21.49 24.86 22.2C24.88 24.89 22.69 27.08 20 27.08ZM23.5 18.12C22.47 18.12 21.62 17.28 21.62 16.24C21.62 15.2 22.46 14.36 23.5 14.36C24.54 14.36 25.38 15.2 25.38 16.24C25.38 17.28 24.53 18.12 23.5 18.12Z" fill="white"/>
</svg>
