<svg width="40" height="40" viewBox="0 0 40 40" fill="none" xmlns="http://www.w3.org/2000/svg">
<rect width="40" height="40" rx="10" fill="#0A599A"/>
<path d="M16.3906 26.4897V16.3297C16.3906 15.9297 16.5106 15.5397 16.7306 15.2097L19.4606 11.1497C19.8906 10.4997 20.9606 10.0397 21.8706 10.3797C22.8506 10.7097 23.5006 11.8097 23.2906 12.7897L22.7706 16.0597C22.7306 16.3597 22.8106 16.6297 22.9806 16.8397C23.1506 17.0297 23.4006 17.1497 23.6706 17.1497H27.7806C28.5706 17.1497 29.2506 17.4697 29.6506 18.0297C30.0306 18.5697 30.1006 19.2697 29.8506 19.9797L27.3906 27.4697C27.0806 28.7097 25.7306 29.7197 24.3906 29.7197H20.4906C19.8206 29.7197 18.8806 29.4897 18.4506 29.0597L17.1706 28.0697C16.6806 27.6997 16.3906 27.1097 16.3906 26.4897Z" fill="white"/>
<path d="M13.21 14.3799H12.18C10.63 14.3799 10 14.9799 10 16.4599V26.5199C10 27.9999 10.63 28.5999 12.18 28.5999H13.21C14.76 28.5999 15.39 27.9999 15.39 26.5199V16.4599C15.39 14.9799 14.76 14.3799 13.21 14.3799Z" fill="white"/>
</svg>
