<svg width="40" height="40" viewBox="0 0 40 40" fill="none" xmlns="http://www.w3.org/2000/svg">
<rect width="40" height="40" rx="10" fill="#0A599A"/>
<path d="M29.5609 18.7396L28.2009 17.1596C27.9409 16.8596 27.7309 16.2996 27.7309 15.8996V14.1996C27.7309 13.1396 26.8609 12.2696 25.8009 12.2696H24.1009C23.7109 12.2696 23.1409 12.0596 22.8409 11.7996L21.2609 10.4396C20.5709 9.84957 19.4409 9.84957 18.7409 10.4396L17.1709 11.8096C16.8709 12.0596 16.3009 12.2696 15.9109 12.2696H14.1809C13.1209 12.2696 12.2509 13.1396 12.2509 14.1996V15.9096C12.2509 16.2996 12.0409 16.8596 11.7909 17.1596L10.4409 18.7496C9.86086 19.4396 9.86086 20.5596 10.4409 21.2496L11.7909 22.8396C12.0409 23.1396 12.2509 23.6996 12.2509 24.0896V25.7996C12.2509 26.8596 13.1209 27.7296 14.1809 27.7296H15.9109C16.3009 27.7296 16.8709 27.9396 17.1709 28.1996L18.7509 29.5596C19.4409 30.1496 20.5709 30.1496 21.2709 29.5596L22.8509 28.1996C23.1509 27.9396 23.7109 27.7296 24.1109 27.7296H25.8109C26.8709 27.7296 27.7409 26.8596 27.7409 25.7996V24.0996C27.7409 23.7096 27.9509 23.1396 28.2109 22.8396L29.5709 21.2596C30.1509 20.5696 30.1509 19.4296 29.5609 18.7396ZM24.1609 18.1096L19.3309 22.9396C19.1909 23.0796 19.0009 23.1596 18.8009 23.1596C18.6009 23.1596 18.4109 23.0796 18.2709 22.9396L15.8509 20.5196C15.5609 20.2296 15.5609 19.7496 15.8509 19.4596C16.1409 19.1696 16.6209 19.1696 16.9109 19.4596L18.8009 21.3496L23.1009 17.0496C23.3909 16.7596 23.8709 16.7596 24.1609 17.0496C24.4509 17.3396 24.4509 17.8196 24.1609 18.1096Z" fill="white"/>
</svg>
