<svg width="40" height="40" viewBox="0 0 40 40" fill="none" xmlns="http://www.w3.org/2000/svg">
<rect width="40" height="40" rx="10" fill="#0A599A"/>
<path d="M24.19 10H15.81C12.17 10 10 12.17 10 15.81V24.18C10 27.83 12.17 30 15.81 30H24.18C27.82 30 29.99 27.83 29.99 24.19V15.81C30 12.17 27.83 10 24.19 10ZM15.63 26.15C15.63 26.56 15.29 26.9 14.88 26.9C14.47 26.9 14.13 26.56 14.13 26.15V24.08C14.13 23.67 14.47 23.33 14.88 23.33C15.29 23.33 15.63 23.67 15.63 24.08V26.15ZM20.75 26.15C20.75 26.56 20.41 26.9 20 26.9C19.59 26.9 19.25 26.56 19.25 26.15V22C19.25 21.59 19.59 21.25 20 21.25C20.41 21.25 20.75 21.59 20.75 22V26.15ZM25.87 26.15C25.87 26.56 25.53 26.9 25.12 26.9C24.71 26.9 24.37 26.56 24.37 26.15V19.93C24.37 19.52 24.71 19.18 25.12 19.18C25.53 19.18 25.87 19.52 25.87 19.93V26.15ZM25.87 16.77C25.87 17.18 25.53 17.52 25.12 17.52C24.71 17.52 24.37 17.18 24.37 16.77V15.8C21.82 18.42 18.63 20.27 15.06 21.16C15 21.18 14.94 21.18 14.88 21.18C14.54 21.18 14.24 20.95 14.15 20.61C14.05 20.21 14.29 19.8 14.7 19.7C18.07 18.86 21.07 17.09 23.45 14.59H22.2C21.79 14.59 21.45 14.25 21.45 13.84C21.45 13.43 21.79 13.09 22.2 13.09H25.13C25.17 13.09 25.2 13.11 25.24 13.11C25.29 13.12 25.34 13.12 25.39 13.14C25.44 13.16 25.48 13.19 25.53 13.22C25.56 13.24 25.59 13.25 25.62 13.27C25.63 13.28 25.63 13.29 25.64 13.29C25.68 13.33 25.71 13.37 25.74 13.41C25.77 13.45 25.8 13.48 25.81 13.52C25.83 13.56 25.83 13.6 25.84 13.65C25.85 13.7 25.87 13.75 25.87 13.81C25.87 13.82 25.88 13.83 25.88 13.84V16.77H25.87Z" fill="white"/>
</svg>
