<svg width="20" height="20" viewBox="0 0 20 20" fill="none" xmlns="http://www.w3.org/2000/svg">
<path d="M17.9667 8.95039L16.8417 7.63372C16.6334 7.38372 16.4584 6.91706 16.4584 6.58372V5.16706C16.4584 4.28372 15.7334 3.55872 14.8501 3.55872H13.4334C13.1001 3.55872 12.6251 3.38372 12.3751 3.17539L11.0584 2.05039C10.4834 1.55872 9.54173 1.55872 8.96673 2.05039L7.6334 3.17539C7.3834 3.38372 6.91673 3.55872 6.5834 3.55872H5.14173C4.2584 3.55872 3.5334 4.28372 3.5334 5.16706V6.58372C3.5334 6.90872 3.36673 7.37539 3.1584 7.62539L2.0334 8.95039C1.55007 9.53372 1.55007 10.4671 2.0334 11.0337L3.1584 12.3587C3.36673 12.6004 3.5334 13.0754 3.5334 13.4004V14.8254C3.5334 15.7087 4.2584 16.4337 5.14173 16.4337H6.59173C6.91673 16.4337 7.39173 16.6087 7.64173 16.8171L8.9584 17.9421C9.5334 18.4337 10.4751 18.4337 11.0501 17.9421L12.3667 16.8171C12.6167 16.6087 13.0834 16.4337 13.4167 16.4337H14.8334C15.7167 16.4337 16.4417 15.7087 16.4417 14.8254V13.4087C16.4417 13.0754 16.6167 12.6087 16.8251 12.3587L17.9501 11.0421C18.4584 10.4754 18.4584 9.53372 17.9667 8.95039ZM9.37507 6.77539C9.37507 6.43372 9.6584 6.15039 10.0001 6.15039C10.3417 6.15039 10.6251 6.43372 10.6251 6.77539V10.8004C10.6251 11.1421 10.3417 11.4254 10.0001 11.4254C9.6584 11.4254 9.37507 11.1421 9.37507 10.8004V6.77539ZM10.0001 14.0587C9.54173 14.0587 9.16673 13.6837 9.16673 13.2254C9.16673 12.7671 9.5334 12.3921 10.0001 12.3921C10.4584 12.3921 10.8334 12.7671 10.8334 13.2254C10.8334 13.6837 10.4667 14.0587 10.0001 14.0587Z" fill="#E64141"/>
</svg>
