<svg width="24" height="24" viewBox="0 0 24 24" fill="none" xmlns="http://www.w3.org/2000/svg">
<path d="M15 22.75H9C3.57 22.75 1.25 20.43 1.25 15V9C1.25 3.57 3.57 1.25 9 1.25H15C20.43 1.25 22.75 3.57 22.75 9V15C22.75 20.43 20.43 22.75 15 22.75ZM9 2.75C4.39 2.75 2.75 4.39 2.75 9V15C2.75 19.61 4.39 21.25 9 21.25H15C19.61 21.25 21.25 19.61 21.25 15V9C21.25 4.39 19.61 2.75 15 2.75H9Z" fill="#3C3C3C"/>
<path d="M8.8117 18.2503C8.7417 18.2503 8.6617 18.2503 8.5917 18.2303L7.4017 18.0703C6.6817 17.9703 6.0517 17.3503 5.9417 16.6103L5.7717 15.4003C5.7017 14.9203 5.9017 14.3103 6.2517 13.9503L8.5317 11.6703C8.1917 10.0503 8.6817 8.37031 9.8717 7.19031C11.7817 5.28031 14.9017 5.28031 16.8117 7.19031C17.7417 8.12031 18.2517 9.35031 18.2517 10.6603C18.2517 11.9703 17.7417 13.2103 16.8117 14.1303C15.6217 15.3103 13.9417 15.8003 12.3317 15.4603L10.0417 17.7403C9.7517 18.0503 9.2617 18.2503 8.8117 18.2503ZM13.3417 7.25031C12.4717 7.25031 11.5917 7.58031 10.9317 8.25031C10.0317 9.15031 9.7117 10.4603 10.0817 11.6803C10.1617 11.9503 10.0917 12.2303 9.8917 12.4303L7.3117 15.0103C7.2917 15.0403 7.2517 15.1503 7.2517 15.1903L7.4217 16.3903C7.4317 16.4503 7.5417 16.5603 7.6017 16.5703L8.8017 16.7403C8.8517 16.7303 8.9517 16.7103 8.9817 16.6803L11.5717 14.0903C11.7717 13.8903 12.0617 13.8303 12.3217 13.9103C13.5317 14.2903 14.8417 13.9703 15.7417 13.0703C16.3817 12.4303 16.7417 11.5703 16.7417 10.6603C16.7417 9.75031 16.3917 8.89031 15.7417 8.25031C15.0917 7.59031 14.2117 7.25031 13.3417 7.25031Z" fill="#3C3C3C"/>
<path d="M10.4512 17.0304C10.2612 17.0304 10.0712 16.9604 9.92125 16.8104L9.06125 15.9504C8.77125 15.6604 8.77125 15.1804 9.06125 14.8904C9.35125 14.6004 9.83125 14.6004 10.1212 14.8904L10.9812 15.7504C11.2712 16.0404 11.2712 16.5204 10.9812 16.8104C10.8412 16.9604 10.6512 17.0304 10.4512 17.0304Z" fill="#3C3C3C"/>
<path d="M13.3811 11.7996C13.2411 11.7996 13.1111 11.7796 12.9911 11.7296C12.8711 11.6796 12.7611 11.5996 12.6711 11.5096C12.4811 11.3196 12.3711 11.0696 12.3711 10.7996C12.3711 10.5396 12.4811 10.2796 12.6711 10.0996C12.9011 9.85963 13.2511 9.74963 13.5711 9.81963C13.6311 9.83963 13.7011 9.84963 13.7611 9.87963C13.8211 9.90963 13.8811 9.93963 13.9311 9.96963C13.9811 10.0096 14.0411 10.0496 14.0811 10.0996C14.2711 10.2796 14.3811 10.5396 14.3811 10.7996C14.3811 10.9396 14.3511 11.0596 14.3011 11.1896C14.2511 11.3096 14.1811 11.4196 14.0811 11.5096C13.8911 11.6996 13.6411 11.7996 13.3811 11.7996Z" fill="#3C3C3C"/>
</svg>
