<svg width="28" height="27" viewBox="0 0 28 27" fill="none" xmlns="http://www.w3.org/2000/svg">
<path d="M10.9766 16.5371L12.6641 18.2246L17.1641 13.7246" stroke="#E64141" stroke-width="2" stroke-linecap="round" stroke-linejoin="round"/>
<path d="M11.75 6.75H16.25C18.5 6.75 18.5 5.625 18.5 4.5C18.5 2.25 17.375 2.25 16.25 2.25H11.75C10.625 2.25 9.5 2.25 9.5 4.5C9.5 6.75 10.625 6.75 11.75 6.75Z" stroke="#E64141" stroke-width="2" stroke-miterlimit="10" stroke-linecap="round" stroke-linejoin="round"/>
<path d="M18.5 4.52246C22.2462 4.72496 24.125 6.10871 24.125 11.25V18C24.125 22.5 23 24.75 17.375 24.75H10.625C5 24.75 3.875 22.5 3.875 18V11.25C3.875 6.11996 5.75375 4.72496 9.5 4.52246" stroke="#E64141" stroke-width="2" stroke-miterlimit="10" stroke-linecap="round" stroke-linejoin="round"/>
</svg>
