<svg width="28" height="27" viewBox="0 0 28 27" fill="none" xmlns="http://www.w3.org/2000/svg">
<g clip-path="url(#clip0_528_7654)">
<path d="M20.795 15.2438C20.3225 15.705 20.0525 16.3688 20.12 17.0775C20.2213 18.2925 21.335 19.1812 22.55 19.1812H24.6875V20.52C24.6875 22.8487 22.7862 24.75 20.4575 24.75H9.08375C9.4325 24.4575 9.73625 24.0975 9.9725 23.6925C10.3888 23.0175 10.625 22.2188 10.625 21.375C10.6249 20.5273 10.3853 19.6968 9.93378 18.9793C9.48225 18.2618 8.83719 17.6865 8.07293 17.3196C7.30867 16.9528 6.4563 16.8093 5.61407 16.9058C4.77183 17.0023 3.974 17.3348 3.3125 17.865V12.9488C3.3125 10.62 5.21375 8.71875 7.5425 8.71875H20.4575C22.7862 8.71875 24.6875 10.62 24.6875 12.9488V14.5687H22.415C21.785 14.5687 21.2113 14.8163 20.795 15.2438Z" stroke="#C8C8C8" stroke-width="2" stroke-linecap="round" stroke-linejoin="round"/>
<path d="M3.3125 13.961V8.81977C3.3125 7.48102 4.13375 6.28852 5.3825 5.81602L14.315 2.44102C14.6386 2.31906 14.9871 2.27745 15.3303 2.31978C15.6736 2.3621 16.0015 2.48709 16.2858 2.68402C16.5701 2.88095 16.8024 3.14393 16.9627 3.4504C17.1231 3.75686 17.2066 4.09765 17.2063 4.44352V8.71852M8.375 13.4998H16.25M25.8789 15.716V18.0335C25.8789 18.6523 25.3839 19.1585 24.7539 19.181H22.5489C21.3339 19.181 20.2201 18.2923 20.1189 17.0773C20.0514 16.3685 20.3214 15.7048 20.7939 15.2435C21.2101 14.816 21.7839 14.5685 22.4139 14.5685H24.7539C25.3839 14.591 25.8789 15.0973 25.8789 15.716Z" stroke="#C8C8C8" stroke-width="2" stroke-linecap="round" stroke-linejoin="round"/>
<path d="M10.625 21.3754C10.625 22.2191 10.3888 23.0179 9.97251 23.6929C9.73626 24.0979 9.43251 24.4579 9.08376 24.7504C8.29626 25.4591 7.26126 25.8754 6.12501 25.8754C5.34939 25.877 4.58673 25.6766 3.91209 25.2939C3.23745 24.9112 2.67411 24.3594 2.27751 23.6929C1.84927 22.9958 1.62335 22.1934 1.62501 21.3754C1.62501 19.9579 2.27751 18.6866 3.31251 17.8654C3.974 17.3352 4.77184 17.0027 5.61408 16.9062C6.45631 16.8097 7.30867 16.9531 8.07294 17.32C8.8372 17.6868 9.48226 18.2622 9.93378 18.9797C10.3853 19.6971 10.6249 20.5276 10.625 21.3754Z" stroke="#C8C8C8" stroke-width="2" stroke-miterlimit="10" stroke-linecap="round" stroke-linejoin="round"/>
<path d="M4.37109 21.375L5.48484 22.4887L7.88109 20.2725" stroke="#C8C8C8" stroke-width="2" stroke-linecap="round" stroke-linejoin="round"/>
</g>
<defs>
<clipPath id="clip0_528_7654">
<rect width="27" height="27" fill="white" transform="translate(0.5)"/>
</clipPath>
</defs>
</svg>
