<svg width="27" height="27" viewBox="0 0 27 27" fill="none" xmlns="http://www.w3.org/2000/svg">
<path d="M10.4766 16.5371L12.1641 18.2246L16.6641 13.7246" stroke="#C8C8C8" stroke-width="2" stroke-linecap="round" stroke-linejoin="round"/>
<path d="M11.25 6.75H15.75C18 6.75 18 5.625 18 4.5C18 2.25 16.875 2.25 15.75 2.25H11.25C10.125 2.25 9 2.25 9 4.5C9 6.75 10.125 6.75 11.25 6.75Z" stroke="#C8C8C8" stroke-width="2" stroke-miterlimit="10" stroke-linecap="round" stroke-linejoin="round"/>
<path d="M18 4.52246C21.7462 4.72496 23.625 6.10871 23.625 11.25V18C23.625 22.5 22.5 24.75 16.875 24.75H10.125C4.5 24.75 3.375 22.5 3.375 18V11.25C3.375 6.11996 5.25375 4.72496 9 4.52246" stroke="#C8C8C8" stroke-width="2" stroke-miterlimit="10" stroke-linecap="round" stroke-linejoin="round"/>
</svg>
