<svg width="22" height="22" viewBox="0 0 22 22" fill="none" xmlns="http://www.w3.org/2000/svg">
    <g id="gallery">
        <path id="Vector" d="M2.02823 17.4177C2.03033 17.4223 2.02935 17.4277 2.02576 17.4313V17.4313C2.01977 17.4373 2.00966 17.4355 2.00616 17.4278C1.76286 16.8908 1.60944 16.282 1.5459 15.6104C1.60976 16.2764 1.78259 16.8788 2.02823 17.4177Z" fill="white"/>
        <path id="Vector_2" d="M7.91702 9.51568C9.12192 9.51568 10.0987 8.53891 10.0987 7.33401C10.0987 6.12911 9.12192 5.15234 7.91702 5.15234C6.71212 5.15234 5.73535 6.12911 5.73535 7.33401C5.73535 8.53891 6.71212 9.51568 7.91702 9.51568Z" fill="white"/>
        <path id="Vector_3" d="M14.5075 1.83301H6.82583C3.48917 1.83301 1.5 3.82217 1.5 7.15884V14.8405C1.5 15.8397 1.67417 16.7105 2.01333 17.4438C2.80167 19.1855 4.48833 20.1663 6.82583 20.1663H14.5075C17.8442 20.1663 19.8333 18.1772 19.8333 14.8405V12.7413V7.15884C19.8333 3.82217 17.8442 1.83301 14.5075 1.83301ZM18.3392 11.458C17.6242 10.8438 16.4692 10.8438 15.7542 11.458L11.9408 14.7305C11.2258 15.3447 10.0708 15.3447 9.35583 14.7305L9.04417 14.4738C8.39333 13.9055 7.3575 13.8505 6.62417 14.3455L4.72777 15.6182C3.94102 16.1462 2.875 15.788 2.875 14.8405V14.8405V7.15884C2.875 4.57384 4.24083 3.20801 6.82583 3.20801H14.5075C17.0925 3.20801 18.4583 4.57384 18.4583 7.15884V11.4027C18.4583 11.4644 18.3862 11.4978 18.3392 11.458V11.458Z" fill="white"/>
    </g>
</svg>