<svg width="18" height="16" viewBox="0 0 18 16" fill="none" xmlns="http://www.w3.org/2000/svg">
<path d="M4.72852 9.50466L6.31794 14.4287C6.43063 14.7791 6.85649 14.9038 7.1369 14.6689L11.8829 10.7005C11.8829 10.7005 6.83945 8.70699 6.83945 8.81582C6.83945 8.92466 4.72852 9.50466 4.72852 9.50466Z" fill="#B5D1DB"/>
<path d="M17.2505 0.041406C14.1502 1.2837 4.1459 5.43661 0.359053 7.00939C-0.141492 7.21776 -0.111355 7.94376 0.403604 8.10966L4.72768 9.50459L6.31187 14.4127C6.37608 14.6105 6.53594 14.7379 6.71545 14.7711C6.8609 14.7989 7.07579 10.796 7.07579 10.796C7.07579 10.796 11.6213 14.211 13.7768 15.8222C14.3075 16.2191 15.0662 15.9204 15.192 15.2648C15.834 11.9122 17.4405 3.52938 17.9895 0.662552C18.0721 0.2312 17.6528 -0.121844 17.2505 0.0400787V0.041406Z" fill="white"/>
<path d="M6.71564 14.7714C6.86109 14.7993 7.07598 10.7963 7.07598 10.7963L14.5435 3.69164C14.5946 3.64386 14.5331 3.5629 14.4741 3.59873L4.72656 9.5036L6.31075 14.4117C6.37495 14.6095 6.53481 14.7369 6.71433 14.7701L6.71564 14.7714Z" fill="#D6E2EA"/>
</svg>
