<svg width="48" height="49" viewBox="0 0 48 49" fill="none" xmlns="http://www.w3.org/2000/svg">
<path d="M32.38 4.59375H15.62C8.34 4.59375 4 8.93268 4 16.2109V32.9467C4 40.2449 8.34 44.5839 15.62 44.5839H32.36C39.64 44.5839 43.98 40.2449 43.98 32.9667V16.2109C44 8.93268 39.66 4.59375 32.38 4.59375ZM21.9 35.6061C21.32 36.1859 20.22 36.7458 19.42 36.8658L14.5 37.5656C14.32 37.5856 14.14 37.6056 13.96 37.6056C13.14 37.6056 12.38 37.3257 11.84 36.7858C11.18 36.126 10.9 35.1662 11.06 34.1065L11.76 29.1877C11.88 28.3679 12.42 27.2881 13.02 26.7083L21.94 17.7905C22.1 18.2104 22.26 18.6303 22.48 19.1102C22.68 19.5301 22.9 19.97 23.14 20.3699C23.34 20.7098 23.56 21.0297 23.74 21.2696C23.96 21.6095 24.22 21.9295 24.38 22.1094C24.48 22.2494 24.56 22.3494 24.6 22.3894C25.1 22.9892 25.68 23.5491 26.18 23.969C26.32 24.1089 26.4 24.1889 26.44 24.2089C26.74 24.4488 27.04 24.6888 27.3 24.8687C27.62 25.1087 27.94 25.3286 28.28 25.5086C28.68 25.7485 29.12 25.9685 29.56 26.1884C30.02 26.3884 30.44 26.5683 30.86 26.7083L21.9 35.6061ZM34.74 22.7693L32.9 24.6288C32.78 24.7488 32.62 24.8088 32.46 24.8088C32.4 24.8088 32.32 24.8088 32.28 24.7888C28.22 23.629 24.98 20.3898 23.82 16.3308C23.76 16.1109 23.82 15.871 23.98 15.731L25.84 13.8715C28.88 10.8322 31.78 10.8922 34.76 13.8715C36.28 15.3911 37.02 16.8507 37.02 18.3703C37 19.81 36.26 21.2496 34.74 22.7693Z" fill="#E64141"/>
</svg>
