<svg width="48" height="49" viewBox="0 0 48 49" fill="none" xmlns="http://www.w3.org/2000/svg">
<path d="M29.8606 5.5935V17.3906C29.8606 18.2704 28.8206 18.7103 28.1806 18.1304L24.6806 14.9112C24.3006 14.5513 23.7006 14.5513 23.3206 14.9112L19.8206 18.1104C19.1806 18.7103 18.1406 18.2504 18.1406 17.3906V5.5935C18.1406 5.03364 18.5806 4.59375 19.1406 4.59375H28.8606C29.4206 4.59375 29.8606 5.03364 29.8606 5.5935Z" fill="#E64141"/>
<path d="M33.96 4.71352C33.38 4.63354 32.86 5.13342 32.86 5.71328V17.7503C32.86 19.2699 31.96 20.6496 30.56 21.2694C29.16 21.8693 27.54 21.6094 26.42 20.5696L24.68 18.97C24.3 18.6101 23.72 18.6101 23.32 18.97L21.58 20.5696C20.86 21.2494 19.92 21.5894 18.98 21.5894C18.46 21.5894 17.94 21.4894 17.44 21.2694C16.04 20.6496 15.14 19.2699 15.14 17.7503V5.71328C15.14 5.13342 14.62 4.63354 14.04 4.71352C8.44 5.41335 6 9.19242 6 14.5911V34.5861C6 40.5847 9 44.5837 16 44.5837H32C39 44.5837 42 40.5847 42 34.5861V14.5911C42 9.19242 39.56 5.41335 33.96 4.71352ZM35 38.0853H18C17.18 38.0853 16.5 37.4054 16.5 36.5857C16.5 35.7659 17.18 35.086 18 35.086H35C35.82 35.086 36.5 35.7659 36.5 36.5857C36.5 37.4054 35.82 38.0853 35 38.0853ZM35 30.0873H26.5C25.68 30.0873 25 29.4074 25 28.5876C25 27.7678 25.68 27.088 26.5 27.088H35C35.82 27.088 36.5 27.7678 36.5 28.5876C36.5 29.4074 35.82 30.0873 35 30.0873Z" fill="#E64141"/>
</svg>
