<svg width="48" height="49" viewBox="0 0 48 49" fill="none" xmlns="http://www.w3.org/2000/svg">
<path d="M35.24 22.0875C34.38 22.0875 33.7 21.3877 33.7 20.5479C33.7 19.8081 32.96 18.2684 31.72 16.9288C30.5 15.6291 29.16 14.8693 28.04 14.8693C27.18 14.8693 26.5 14.1695 26.5 13.3297C26.5 12.4899 27.2 11.79 28.04 11.79C30.04 11.79 32.14 12.8698 33.98 14.8093C35.7 16.6288 36.8 18.8883 36.8 20.5279C36.8 21.3877 36.1 22.0875 35.24 22.0875Z" fill="#E64141"/>
<path d="M42.4595 22.0894C41.5995 22.0894 40.9195 21.3896 40.9195 20.5498C40.9195 13.4516 35.1395 7.69298 28.0595 7.69298C27.1995 7.69298 26.5195 6.99316 26.5195 6.15336C26.5195 5.31357 27.1995 4.59375 28.0395 4.59375C36.8395 4.59375 43.9995 11.752 43.9995 20.5498C43.9995 21.3896 43.2995 22.0894 42.4595 22.0894Z" fill="#E64141"/>
<path d="M22.1 30.4874L18.4 34.1864C17.62 34.9662 16.38 34.9662 15.58 34.2064C15.36 33.9865 15.14 33.7865 14.92 33.5666C12.86 31.4871 11 29.3076 9.34 27.0282C7.7 24.7488 6.38 22.4693 5.42 20.2099C4.48 17.9305 4 15.751 4 13.6715C4 12.3118 4.24 11.0122 4.72 9.81246C5.2 8.59276 5.96 7.47304 7.02 6.47329C8.3 5.2136 9.7 4.59375 11.18 4.59375C11.74 4.59375 12.3 4.71372 12.8 4.95366C13.32 5.1936 13.78 5.55351 14.14 6.07338L18.78 12.6118C19.14 13.1116 19.4 13.5715 19.58 14.0114C19.76 14.4313 19.86 14.8512 19.86 15.2311C19.86 15.711 19.72 16.1909 19.44 16.6508C19.18 17.1107 18.8 17.5905 18.32 18.0704L16.8 19.65C16.58 19.87 16.48 20.1299 16.48 20.4498C16.48 20.6098 16.5 20.7498 16.54 20.9097C16.6 21.0697 16.66 21.1896 16.7 21.3096C17.06 21.9695 17.68 22.8292 18.56 23.869C19.46 24.9087 20.42 25.9685 21.46 27.0282C21.66 27.2282 21.88 27.4281 22.08 27.6281C22.88 28.4079 22.9 29.6876 22.1 30.4874Z" fill="#E64141"/>
<path d="M43.9392 37.2449C43.9392 37.8047 43.8392 38.3846 43.6392 38.9445C43.5792 39.1044 43.5192 39.2644 43.4392 39.4243C43.0992 40.1442 42.6592 40.824 42.0792 41.4638C41.0992 42.5436 40.0192 43.3234 38.7992 43.8232C38.7792 43.8232 38.7592 43.8432 38.7392 43.8432C37.5592 44.3231 36.2792 44.5831 34.8992 44.5831C32.8592 44.5831 30.6792 44.1032 28.3792 43.1234C26.0792 42.1437 23.7792 40.824 21.4992 39.1644C20.7192 38.5845 19.9392 38.0047 19.1992 37.3848L25.7392 30.8465C26.2992 31.2664 26.7992 31.5863 27.2192 31.8062C27.3192 31.8462 27.4392 31.9062 27.5792 31.9662C27.7392 32.0262 27.8992 32.0462 28.0792 32.0462C28.4192 32.0462 28.6792 31.9262 28.8992 31.7062L30.4192 30.2066C30.9192 29.7067 31.3992 29.3268 31.8592 29.0869C32.3192 28.807 32.7792 28.667 33.2792 28.667C33.6592 28.667 34.0592 28.747 34.4992 28.9269C34.9392 29.1069 35.3992 29.3668 35.8992 29.7067L42.5192 34.4056C43.0392 34.7655 43.3992 35.1854 43.6192 35.6853C43.8192 36.1851 43.9392 36.685 43.9392 37.2449Z" fill="#E64141"/>
</svg>
