<svg width="48" height="49" viewBox="0 0 48 49" fill="none" xmlns="http://www.w3.org/2000/svg">
<path d="M33.6406 4.41406H14.3606C10.1206 4.41406 6.64062 7.8932 6.64062 12.1322V40.3052C6.64062 43.9043 9.22063 45.4239 12.3806 43.6844L22.1406 38.2657C23.1806 37.6858 24.8606 37.6858 25.8806 38.2657L35.6406 43.6844C38.8006 45.4439 41.3806 43.9243 41.3806 40.3052V12.1322C41.3606 7.8932 37.9006 4.41406 33.6406 4.41406ZM31.2406 18.6505L23.2406 26.6486C22.9406 26.9485 22.5606 27.0885 22.1806 27.0885C21.8006 27.0885 21.4206 26.9485 21.1206 26.6486L18.1206 23.6493C17.5406 23.0695 17.5406 22.1097 18.1206 21.5298C18.7006 20.95 19.6606 20.95 20.2406 21.5298L22.1806 23.4694L29.1206 16.5311C29.7006 15.9512 30.6606 15.9512 31.2406 16.5311C31.8206 17.1109 31.8206 18.0707 31.2406 18.6505Z" fill="#E64141"/>
</svg>
