<svg width="20" height="20" viewBox="0 0 20 20" fill="none" xmlns="http://www.w3.org/2000/svg">
<path d="M7.31744 8.99549L7.36609 8.99714L7.40697 8.99054C7.408 8.99048 7.4093 8.9904 7.41091 8.99031C7.41984 8.98983 7.43333 8.98944 7.45116 8.98944C7.48696 8.98944 7.53126 8.99102 7.57652 8.99439L7.60618 8.9966L7.63588 8.99528C9.60079 8.90789 11.166 7.33957 11.1762 5.38852V5.38592C11.1762 3.37934 9.48878 1.76761 7.45662 1.76761C5.42445 1.76761 3.73703 3.37934 3.73703 5.38592C3.73703 7.36001 5.32644 8.92765 7.31744 8.99549ZM17.1301 6.28169C17.1301 7.93559 15.7969 9.29774 14.0606 9.37287L14.0124 9.35731L13.9098 9.36701C13.8562 9.37207 13.794 9.35529 13.7466 9.32146C13.7005 9.28857 13.6957 9.26139 13.6953 9.25693C13.6897 9.20202 13.7052 9.16339 13.7213 9.14188C13.7342 9.1246 13.7537 9.10895 13.7905 9.10313C13.8689 9.09744 13.9578 9.09718 14.0528 9.09718H14.0661L14.0793 9.09648C15.6046 9.01553 16.8214 7.79517 16.8214 6.27324C16.8214 4.69765 15.5091 3.4493 13.922 3.4493V3.44916L13.9102 3.44944C13.8247 3.45145 13.7676 3.38132 13.7676 3.32394C13.7676 3.29678 13.7789 3.26494 13.8085 3.23627C13.8382 3.20746 13.8786 3.19014 13.922 3.19014C15.7027 3.19014 17.1301 4.59531 17.1301 6.28169ZM12.0624 12.1353L12.0628 12.1355C13.1654 12.8475 13.7099 13.7713 13.7099 14.7155C13.7099 15.6623 13.1713 16.5939 12.0623 17.3127C10.851 18.0946 9.24053 18.5 7.60494 18.5C5.96822 18.5 4.34979 18.0941 3.14842 17.3132L3.14575 17.3115C2.03735 16.6009 1.5 15.6781 1.5 14.7324C1.5 13.7858 2.03836 12.8543 3.147 12.1356C4.35817 11.3578 5.9731 10.9542 7.61149 10.9542C9.25039 10.9542 10.8606 11.358 12.0624 12.1353ZM15.4592 16.8734L15.4591 16.8731C15.4465 16.8102 15.4831 16.7311 15.5786 16.7089C16.1841 16.5872 16.7599 16.3511 17.2214 16.0044C17.8051 15.5768 18.1912 14.9861 18.1912 14.3014C18.1912 13.6181 17.8065 13.0266 17.2288 12.606C16.7756 12.2675 16.2268 12.0414 15.6103 11.9036L15.6077 11.903C15.5157 11.883 15.4783 11.8035 15.4912 11.7429C15.5062 11.6821 15.583 11.6166 15.6852 11.6384C16.3745 11.7859 16.9601 12.0466 17.4271 12.3951L17.4271 12.3951L17.4316 12.3984C18.1353 12.9114 18.5 13.607 18.5 14.3014C18.5 14.9926 18.1295 15.6904 17.4201 16.2149L17.4174 16.2169C16.9427 16.5728 16.3341 16.8402 15.6515 16.9709L15.6212 16.9767L15.6145 16.9789L15.6059 16.9789C15.5191 16.9789 15.4696 16.9254 15.4592 16.8734ZM7.59622 9.26338H7.59607H7.59591H7.59576H7.59561H7.59546H7.5953H7.59515H7.595H7.59485H7.5947H7.59454H7.59439H7.59424H7.59409H7.59394H7.59379H7.59364H7.59349H7.59334H7.59319H7.59304H7.59289H7.59274H7.59259H7.59245H7.5923H7.59215H7.592H7.59185H7.5917H7.59156H7.59141H7.59126H7.59111H7.59097H7.59082H7.59067H7.59053H7.59038H7.59024H7.59009H7.58994H7.5898H7.58965H7.58951H7.58936H7.58922H7.58907H7.58893H7.58878H7.58864H7.5885H7.58835H7.58821H7.58806H7.58792H7.58778H7.58763H7.58749H7.58735H7.58721H7.58706H7.58692H7.58678H7.58664H7.58649H7.58635H7.58621H7.58607H7.58593H7.58579H7.58565H7.5855H7.58536H7.58522H7.58508H7.58494H7.5848H7.58466H7.58452H7.58438H7.58424H7.5841H7.58396H7.58382H7.58369H7.58355H7.58341H7.58327H7.58313H7.58299H7.58285H7.58272H7.58258H7.58244H7.5823H7.58216H7.58203H7.58189H7.58175H7.58161H7.58148H7.58134H7.5812H7.58107H7.58093H7.58079H7.58066H7.58052H7.58038H7.58025H7.58011H7.57998H7.57984H7.5797H7.57957H7.57943H7.5793H7.57916H7.57903H7.57889H7.57876H7.57862H7.57849H7.57835H7.57822H7.57809H7.57795H7.57782H7.57768H7.57755H7.57741H7.57728H7.57715H7.57701H7.57688H7.57675H7.57661H7.57648H7.57635H7.57621H7.57608H7.57595H7.57582H7.57568H7.57555H7.57542H7.57529H7.57515H7.57502H7.57489H7.57476H7.57463H7.57449H7.57436H7.57423H7.5741H7.57397H7.57383H7.5737H7.57357H7.57344H7.57331H7.57318H7.57305H7.57292H7.57279H7.57265H7.57252H7.57239H7.57226H7.57213H7.572H7.57187H7.57174H7.57161H7.57148H7.57135H7.57122H7.57109H7.57096H7.57083H7.5707H7.57057H7.57044H7.57031H7.57018H7.57005H7.56992H7.56979H7.56966H7.56953H7.5694H7.56927H7.56914H7.56902H7.56889H7.56876H7.56863H7.5685H7.56837H7.56824H7.56811H7.56798H7.56785H7.56773H7.5676H7.56747H7.56734H7.56721H7.56708H7.56695H7.56682H7.5667H7.56657H7.56644H7.56631H7.56618H7.56605H7.56593H7.5658H7.56567H7.56554H7.56541H7.56528H7.56516H7.56503H7.5649H7.56477H7.56464H7.56452H7.56439H7.56426H7.56413H7.564H7.56388H7.56375H7.56362H7.56349H7.56336H7.56324H7.56311H7.56298H7.56285H7.56272H7.5626H7.56247C7.48957 9.2548 7.41485 9.25541 7.34669 9.26232C5.08814 9.1761 3.42826 7.46145 3.42826 5.38592C3.42826 3.2601 5.22218 1.5 7.45662 1.5C9.69077 1.5 11.4845 3.25965 11.485 5.38511C11.4767 7.47643 9.78667 9.19164 7.61438 9.26338H7.61437H7.61432H7.61427H7.61421H7.61416H7.61411H7.61406H7.61401H7.61396H7.61391H7.61386H7.61381H7.61375H7.6137H7.61365H7.6136H7.61355H7.6135H7.61345H7.6134H7.61335H7.61329H7.61324H7.61319H7.61314H7.61309H7.61304H7.61299H7.61294H7.61289H7.61283H7.61278H7.61273H7.61268H7.61263H7.61258H7.61253H7.61248H7.61243H7.61237H7.61232H7.61227H7.61222H7.61217H7.61212H7.61207H7.61202H7.61197H7.61191H7.61186H7.61181H7.61176H7.61171H7.61166H7.61161H7.61156H7.61151H7.61145H7.6114H7.61135H7.6113H7.61125H7.6112H7.61115H7.6111H7.61105H7.61099H7.61094H7.61089H7.61084H7.61079H7.61074H7.61069H7.61064H7.61059H7.61053H7.61048H7.61043H7.61038H7.61033H7.61028H7.61023H7.61018H7.61013H7.61007H7.61002H7.60997H7.60992H7.60987H7.60982H7.60977H7.60972H7.60966H7.60961H7.60956H7.60951H7.60946H7.60941H7.60936H7.60931H7.60926H7.6092H7.60915H7.6091H7.60905H7.609H7.60895H7.6089H7.60885H7.6088H7.60874H7.60869H7.60864H7.60859H7.60854H7.60849H7.60844H7.60839H7.60834H7.60828H7.60823H7.60818H7.60813H7.60808H7.60803H7.60798H7.60793H7.60788H7.60782H7.60777H7.60772H7.60767H7.60762H7.60757H7.60752H7.60747H7.60742H7.60736H7.60731H7.60726H7.60721H7.60716H7.60711H7.60706H7.60701H7.60696H7.6069H7.60685H7.6068H7.60675H7.6067H7.60665H7.6066H7.60655H7.6065H7.60644H7.60639H7.60634H7.60629H7.60624H7.60619H7.60614H7.60609H7.60604H7.60598H7.60593H7.60588H7.60583H7.60578H7.60573H7.60568H7.60563H7.60558H7.60552H7.60547H7.60542H7.60537H7.60532H7.60527H7.60522H7.60517H7.60511H7.60506H7.60501H7.60496H7.60491H7.60486H7.60481H7.60476H7.60471H7.60465H7.6046H7.60455H7.6045H7.60445H7.6044H7.60435H7.6043H7.60425H7.60419H7.60414H7.60409H7.60404H7.60399H7.60394H7.60389H7.60384H7.60379H7.60373H7.60368H7.60363H7.60358H7.60353H7.60348H7.60343H7.60338H7.60333H7.60327H7.60322H7.60317H7.60312H7.60307H7.60302H7.60297H7.60292H7.60287H7.60281H7.60276H7.60271H7.60266H7.60261H7.60256H7.60251H7.60246H7.60241H7.60235H7.6023H7.60225H7.6022H7.60215H7.6021H7.60205H7.602H7.60195H7.60189H7.60184H7.60179H7.60174H7.60169H7.60164H7.60159H7.60154H7.60149H7.60143H7.60138H7.60133H7.60128H7.60123H7.60118H7.60113H7.60108H7.60103H7.60097H7.60092H7.60087H7.60082H7.60077H7.60072H7.60067H7.60062H7.60056H7.60051H7.60046H7.60041H7.60036H7.60031H7.60026H7.60021H7.60016H7.6001H7.60005H7.6H7.59995H7.5999H7.59985H7.5998H7.59975H7.5997H7.59964H7.59959H7.59954H7.59949H7.59944H7.59939H7.59934H7.59929H7.59924H7.59918H7.59913H7.59908H7.59903H7.59898H7.59893H7.59888H7.59883H7.59878H7.59872H7.59867H7.59862H7.59857H7.59852H7.59847H7.59842H7.59837H7.59832H7.59826H7.59821H7.59816H7.59811H7.59806H7.59801H7.59796H7.59791H7.59786H7.5978H7.59775H7.5977H7.59765H7.5976H7.59755H7.5975H7.59745H7.5974H7.59734H7.59729H7.59724H7.59719H7.59714H7.59709H7.59704H7.59699H7.59694H7.59688H7.59683H7.59678H7.59673H7.59668H7.59663H7.59658H7.59653H7.59648H7.59642H7.59637H7.59632H7.59627H7.59622ZM3.32888 12.3602C2.40553 12.9564 1.80877 13.7862 1.80877 14.7408C1.80877 15.6897 2.41723 16.5186 3.32867 17.1044C4.51526 17.8749 6.07538 18.243 7.60494 18.243C9.13456 18.243 10.6947 17.8748 11.8813 17.1043C12.8045 16.5082 13.4011 15.6785 13.4011 14.7239C13.4011 13.7748 12.7923 12.9457 11.8805 12.3599C10.694 11.594 9.13418 11.2282 7.60494 11.2282C6.0755 11.2282 4.5154 11.5941 3.32888 12.3602Z" fill="#292D32" stroke="#505050"/>
</svg>
