<svg width="20" height="20" viewBox="0 0 20 20" fill="none" xmlns="http://www.w3.org/2000/svg">
<path d="M10.0013 18.9587C5.05964 18.9587 1.04297 14.942 1.04297 10.0003C1.04297 5.05866 5.05964 1.04199 10.0013 1.04199C14.943 1.04199 18.9596 5.05866 18.9596 10.0003C18.9596 10.342 18.6763 10.6253 18.3346 10.6253C17.993 10.6253 17.7096 10.342 17.7096 10.0003C17.7096 5.75033 14.2513 2.29199 10.0013 2.29199C5.7513 2.29199 2.29297 5.75033 2.29297 10.0003C2.29297 14.2503 5.7513 17.7087 10.0013 17.7087C10.343 17.7087 10.6263 17.992 10.6263 18.3337C10.6263 18.6753 10.343 18.9587 10.0013 18.9587Z" fill="#818181"/>
<path d="M7.50313 18.125H6.6698C6.32813 18.125 6.0448 17.8417 6.0448 17.5C6.0448 17.1583 6.31146 16.8833 6.65312 16.875C5.34479 12.4083 5.34479 7.59167 6.65312 3.125C6.31979 3.11667 6.0448 2.84167 6.0448 2.5C6.0448 2.15833 6.32813 1.875 6.6698 1.875H7.50313C7.70313 1.875 7.8948 1.975 8.01146 2.13333C8.12813 2.3 8.16147 2.50833 8.0948 2.69999C6.52813 7.40833 6.52813 12.6 8.0948 17.3083C8.16147 17.5 8.12813 17.7083 8.01146 17.875C7.8948 18.0417 7.70313 18.125 7.50313 18.125Z" fill="#818181"/>
<path d="M13.7154 10.6257C13.3737 10.6257 13.0904 10.3424 13.0904 10.0007C13.0904 7.51737 12.6904 5.05903 11.9071 2.70069C11.7987 2.37569 11.9737 2.01735 12.2987 1.90902C12.6237 1.80068 12.9821 1.97571 13.0904 2.30071C13.9154 4.78404 14.3404 7.3757 14.3404 10.0007C14.3404 10.3424 14.0571 10.6257 13.7154 10.6257Z" fill="#818181"/>
<path d="M10 14.3414C7.66667 14.3414 5.35833 14.008 3.125 13.3497C3.11667 13.683 2.84167 13.958 2.5 13.958C2.15833 13.958 1.875 13.6747 1.875 13.333V12.4997C1.875 12.2997 1.975 12.108 2.13333 11.9914C2.3 11.8747 2.50834 11.8413 2.7 11.908C5.05834 12.6913 7.51667 13.0914 10 13.0914C10.3417 13.0914 10.625 13.3747 10.625 13.7164C10.625 14.058 10.3417 14.3414 10 14.3414Z" fill="#818181"/>
<path d="M17.4993 8.12547C17.4326 8.12547 17.3659 8.11716 17.2993 8.09216C12.5909 6.52549 7.39925 6.52549 2.69092 8.09216C2.36592 8.20049 2.00759 8.02547 1.89925 7.70047C1.79092 7.37547 1.96592 7.01712 2.29092 6.90879C7.25759 5.25046 12.7243 5.25046 17.6826 6.90879C18.0076 7.01712 18.1826 7.37547 18.0743 7.70047C18.0076 7.9588 17.7576 8.12547 17.4993 8.12547Z" fill="#818181"/>
<path d="M15.1667 18.4584C13.35 18.4584 11.875 16.9833 11.875 15.1667C11.875 13.35 13.35 11.875 15.1667 11.875C16.9833 11.875 18.4583 13.35 18.4583 15.1667C18.4583 16.9833 16.9833 18.4584 15.1667 18.4584ZM15.1667 13.125C14.0417 13.125 13.125 14.0417 13.125 15.1667C13.125 16.2917 14.0417 17.2084 15.1667 17.2084C16.2917 17.2084 17.2083 16.2917 17.2083 15.1667C17.2083 14.0417 16.2917 13.125 15.1667 13.125Z" fill="#818181"/>
<path d="M18.3352 18.9582C18.1768 18.9582 18.0185 18.8999 17.8935 18.7749L17.0602 17.9416C16.8185 17.6999 16.8185 17.2999 17.0602 17.0582C17.3018 16.8165 17.7018 16.8165 17.9435 17.0582L18.7768 17.8915C19.0185 18.1332 19.0185 18.5333 18.7768 18.7749C18.6518 18.8999 18.4935 18.9582 18.3352 18.9582Z" fill="#818181"/>
</svg>
