<svg width="20" height="20" viewBox="0 0 20 20" fill="none" xmlns="http://www.w3.org/2000/svg">
<path d="M18.3346 18.958H1.66797C1.3263 18.958 1.04297 18.6747 1.04297 18.333C1.04297 17.9913 1.3263 17.708 1.66797 17.708H18.3346C18.6763 17.708 18.9596 17.9913 18.9596 18.333C18.9596 18.6747 18.6763 18.958 18.3346 18.958Z" fill="#818181"/>
<path d="M17.5 18.9587H2.5C2.15833 18.9587 1.875 18.6753 1.875 18.3337V5.00033C1.875 2.48366 3.31667 1.04199 5.83333 1.04199H14.1667C16.6833 1.04199 18.125 2.48366 18.125 5.00033V18.3337C18.125 18.6753 17.8417 18.9587 17.5 18.9587ZM3.125 17.7087H16.875V5.00033C16.875 3.15033 16.0167 2.29199 14.1667 2.29199H5.83333C3.98333 2.29199 3.125 3.15033 3.125 5.00033V17.7087Z" fill="#818181"/>
<path d="M8.33203 14.375H5.83203C5.49036 14.375 5.20703 14.0917 5.20703 13.75C5.20703 13.4083 5.49036 13.125 5.83203 13.125H8.33203C8.6737 13.125 8.95703 13.4083 8.95703 13.75C8.95703 14.0917 8.6737 14.375 8.33203 14.375Z" fill="#818181"/>
<path d="M14.168 14.375H11.668C11.3263 14.375 11.043 14.0917 11.043 13.75C11.043 13.4083 11.3263 13.125 11.668 13.125H14.168C14.5096 13.125 14.793 13.4083 14.793 13.75C14.793 14.0917 14.5096 14.375 14.168 14.375Z" fill="#818181"/>
<path d="M8.33203 10.625H5.83203C5.49036 10.625 5.20703 10.3417 5.20703 10C5.20703 9.65833 5.49036 9.375 5.83203 9.375H8.33203C8.6737 9.375 8.95703 9.65833 8.95703 10C8.95703 10.3417 8.6737 10.625 8.33203 10.625Z" fill="#818181"/>
<path d="M14.168 10.625H11.668C11.3263 10.625 11.043 10.3417 11.043 10C11.043 9.65833 11.3263 9.375 11.668 9.375H14.168C14.5096 9.375 14.793 9.65833 14.793 10C14.793 10.3417 14.5096 10.625 14.168 10.625Z" fill="#818181"/>
<path d="M8.33203 6.875H5.83203C5.49036 6.875 5.20703 6.59167 5.20703 6.25C5.20703 5.90833 5.49036 5.625 5.83203 5.625H8.33203C8.6737 5.625 8.95703 5.90833 8.95703 6.25C8.95703 6.59167 8.6737 6.875 8.33203 6.875Z" fill="#818181"/>
<path d="M14.168 6.875H11.668C11.3263 6.875 11.043 6.59167 11.043 6.25C11.043 5.90833 11.3263 5.625 11.668 5.625H14.168C14.5096 5.625 14.793 5.90833 14.793 6.25C14.793 6.59167 14.5096 6.875 14.168 6.875Z" fill="#818181"/>
</svg>
