<svg width="20" height="20" viewBox="0 0 20 20" fill="none" xmlns="http://www.w3.org/2000/svg">
<path d="M15.832 7.29199C14.107 7.29199 12.707 5.89199 12.707 4.16699C12.707 2.44199 14.107 1.04199 15.832 1.04199C17.557 1.04199 18.957 2.44199 18.957 4.16699C18.957 5.89199 17.557 7.29199 15.832 7.29199ZM15.832 2.29199C14.7987 2.29199 13.957 3.13366 13.957 4.16699C13.957 5.20033 14.7987 6.04199 15.832 6.04199C16.8654 6.04199 17.707 5.20033 17.707 4.16699C17.707 3.13366 16.8654 2.29199 15.832 2.29199Z" fill="#818181"/>
<path d="M9.9987 11.458H5.83203C5.49036 11.458 5.20703 11.1747 5.20703 10.833C5.20703 10.4913 5.49036 10.208 5.83203 10.208H9.9987C10.3404 10.208 10.6237 10.4913 10.6237 10.833C10.6237 11.1747 10.3404 11.458 9.9987 11.458Z" fill="#818181"/>
<path d="M13.332 14.792H5.83203C5.49036 14.792 5.20703 14.5087 5.20703 14.167C5.20703 13.8253 5.49036 13.542 5.83203 13.542H13.332C13.6737 13.542 13.957 13.8253 13.957 14.167C13.957 14.5087 13.6737 14.792 13.332 14.792Z" fill="#818181"/>
<path d="M12.5013 18.9587H7.5013C2.9763 18.9587 1.04297 17.0253 1.04297 12.5003V7.50033C1.04297 2.97533 2.9763 1.04199 7.5013 1.04199H11.668C12.0096 1.04199 12.293 1.32533 12.293 1.66699C12.293 2.00866 12.0096 2.29199 11.668 2.29199H7.5013C3.65964 2.29199 2.29297 3.65866 2.29297 7.50033V12.5003C2.29297 16.342 3.65964 17.7087 7.5013 17.7087H12.5013C16.343 17.7087 17.7096 16.342 17.7096 12.5003V8.33366C17.7096 7.99199 17.993 7.70866 18.3346 7.70866C18.6763 7.70866 18.9596 7.99199 18.9596 8.33366V12.5003C18.9596 17.0253 17.0263 18.9587 12.5013 18.9587Z" fill="#818181"/>
</svg>
