<svg width="40" height="40" viewBox="0 0 40 40" fill="none" xmlns="http://www.w3.org/2000/svg">
<path d="M20 37.9163C10.1166 37.9163 2.08331 29.883 2.08331 19.9997C2.08331 10.1163 10.1166 2.08301 20 2.08301C29.8833 2.08301 37.9166 10.1163 37.9166 19.9997C37.9166 20.683 37.35 21.2497 36.6666 21.2497C35.9833 21.2497 35.4166 20.683 35.4166 19.9997C35.4166 11.4997 28.5 4.58301 20 4.58301C11.5 4.58301 4.58331 11.4997 4.58331 19.9997C4.58331 28.4997 11.5 35.4163 20 35.4163C20.6833 35.4163 21.25 35.983 21.25 36.6663C21.25 37.3497 20.6833 37.9163 20 37.9163Z" fill="white"/>
<path d="M15.0036 36.25H13.337C12.6536 36.25 12.087 35.6833 12.087 35C12.087 34.3167 12.6203 33.7667 13.3036 33.75C10.687 24.8167 10.687 15.1833 13.3036 6.25C12.637 6.23333 12.087 5.68333 12.087 5C12.087 4.31667 12.6536 3.75 13.337 3.75H15.0036C15.4036 3.75 15.787 3.95 16.0203 4.26666C16.2536 4.6 16.3203 5.01665 16.187 5.39998C13.0536 14.8167 13.0536 25.2 16.187 34.6167C16.3203 35 16.2536 35.4167 16.0203 35.75C15.787 36.0834 15.4036 36.25 15.0036 36.25Z" fill="white"/>
<path d="M27.4308 21.2514C26.7475 21.2514 26.1808 20.6847 26.1808 20.0014C26.1808 15.0347 25.3808 10.1181 23.8141 5.40139C23.5975 4.75139 23.9475 4.0347 24.5975 3.81803C25.2475 3.60137 25.9642 3.95142 26.1808 4.60142C27.8308 9.56809 28.6808 14.7514 28.6808 20.0014C28.6808 20.6847 28.1142 21.2514 27.4308 21.2514Z" fill="white"/>
<path d="M20 28.6827C15.3333 28.6827 10.7167 28.0161 6.25 26.6994C6.23333 27.3661 5.68333 27.916 5 27.916C4.31667 27.916 3.75 27.3494 3.75 26.666V24.9994C3.75 24.5994 3.95 24.216 4.26666 23.9827C4.6 23.7494 5.01668 23.6827 5.40001 23.816C10.1167 25.3827 15.0333 26.1827 20 26.1827C20.6833 26.1827 21.25 26.7494 21.25 27.4327C21.25 28.1161 20.6833 28.6827 20 28.6827Z" fill="white"/>
<path d="M35.0011 16.2509C34.8678 16.2509 34.7345 16.2343 34.6011 16.1843C25.1845 13.051 14.8011 13.051 5.38446 16.1843C4.73446 16.401 4.0178 16.0509 3.80113 15.4009C3.58447 14.7509 3.93447 14.0342 4.58447 13.8176C14.5178 10.5009 25.4511 10.5009 35.3678 13.8176C36.0178 14.0342 36.3678 14.7509 36.1511 15.4009C36.0178 15.9176 35.5178 16.2509 35.0011 16.2509Z" fill="white"/>
<path d="M30.3333 36.9167C26.7 36.9167 23.75 33.9667 23.75 30.3334C23.75 26.7 26.7 23.75 30.3333 23.75C33.9667 23.75 36.9167 26.7 36.9167 30.3334C36.9167 33.9667 33.9667 36.9167 30.3333 36.9167ZM30.3333 26.25C28.0833 26.25 26.25 28.0834 26.25 30.3334C26.25 32.5834 28.0833 34.4167 30.3333 34.4167C32.5833 34.4167 34.4167 32.5834 34.4167 30.3334C34.4167 28.0834 32.5833 26.25 30.3333 26.25Z" fill="white"/>
<path d="M36.669 37.9165C36.3524 37.9165 36.0357 37.7998 35.7857 37.5498L34.119 35.8832C33.6357 35.3998 33.6357 34.5997 34.119 34.1164C34.6024 33.6331 35.4024 33.6331 35.8857 34.1164L37.5524 35.7831C38.0357 36.2664 38.0357 37.0665 37.5524 37.5498C37.3024 37.7998 36.9857 37.9165 36.669 37.9165Z" fill="white"/>
</svg>
