<svg width="40" height="40" viewBox="0 0 40 40" fill="none" xmlns="http://www.w3.org/2000/svg">
<path d="M36.6667 37.917H3.33337C2.65004 37.917 2.08337 37.3503 2.08337 36.667C2.08337 35.9837 2.65004 35.417 3.33337 35.417H36.6667C37.35 35.417 37.9167 35.9837 37.9167 36.667C37.9167 37.3503 37.35 37.917 36.6667 37.917Z" fill="white"/>
<path d="M6.16699 36.6666H3.66699L3.75033 16.6165C3.75033 15.1998 4.40033 13.8832 5.51699 13.0166L17.1837 3.9332C18.8337 2.64987 21.1503 2.64987 22.817 3.9332L34.4837 12.9999C35.5837 13.8665 36.2503 15.2165 36.2503 16.6165V36.6666H33.7503V16.6332C33.7503 15.9999 33.4503 15.3832 32.9503 14.9832L21.2837 5.91654C20.5337 5.33321 19.4837 5.33321 18.717 5.91654L7.05034 14.9999C6.55034 15.3832 6.25033 15.9999 6.25033 16.6332L6.16699 36.6666Z" fill="white"/>
<path d="M28.3333 37.9163H11.6666C10.9833 37.9163 10.4166 37.3497 10.4166 36.6663V20.833C10.4166 18.7663 12.1 17.083 14.1666 17.083H25.8333C27.9 17.083 29.5833 18.7663 29.5833 20.833V36.6663C29.5833 37.3497 29.0166 37.9163 28.3333 37.9163ZM12.9166 35.4163H27.0833V20.833C27.0833 20.1497 26.5166 19.583 25.8333 19.583H14.1666C13.4833 19.583 12.9166 20.1497 12.9166 20.833V35.4163Z" fill="white"/>
<path d="M16.6666 30.833C15.9833 30.833 15.4166 30.2663 15.4166 29.583V27.083C15.4166 26.3997 15.9833 25.833 16.6666 25.833C17.35 25.833 17.9166 26.3997 17.9166 27.083V29.583C17.9166 30.2663 17.35 30.833 16.6666 30.833Z" fill="white"/>
<path d="M22.5 13.75H17.5C16.8167 13.75 16.25 13.1833 16.25 12.5C16.25 11.8167 16.8167 11.25 17.5 11.25H22.5C23.1833 11.25 23.75 11.8167 23.75 12.5C23.75 13.1833 23.1833 13.75 22.5 13.75Z" fill="white"/>
</svg>
