<svg width="40" height="40" viewBox="0 0 40 40" fill="none" xmlns="http://www.w3.org/2000/svg">
<path d="M14.3004 37.5842C13.9338 37.5842 13.5504 37.5175 13.2004 37.3675C12.4171 37.0342 11.8171 36.3842 11.5504 35.5675L10.8171 33.3675C10.4838 32.3675 10.7838 31.1175 11.5171 30.3675L15.3004 26.5675C15.3504 26.5175 15.4171 26.3342 15.4171 26.2508V22.1342L7.8171 25.4175C6.80043 25.8508 5.7671 25.8008 4.98376 25.2842C4.20043 24.7675 3.73376 23.8342 3.73376 22.7508V20.6008C3.73376 18.9675 4.90043 17.2175 6.38376 16.6342L15.4004 12.7342V8.00085C15.4004 5.98418 16.8171 3.66751 18.6171 2.73418C19.4838 2.30085 20.4838 2.30085 21.3338 2.73418C23.1504 3.66751 24.5671 5.96751 24.5671 7.98418V12.7175L33.6338 16.6175C35.1171 17.2508 36.2504 18.9508 36.2504 20.6008V22.7508C36.2504 23.8508 35.8004 24.7675 35.0004 25.2842C34.2004 25.8008 33.1838 25.8508 32.1671 25.4342L24.5671 22.1508V26.2675C24.5671 26.3342 24.6338 26.5008 24.6838 26.5508L28.4838 30.3675C29.2171 31.1008 29.5171 32.3842 29.1838 33.3675L28.4504 35.5675C28.1671 36.3842 27.5671 37.0342 26.7671 37.3508C25.9838 37.6675 25.1171 37.6342 24.3671 37.2675C24.2838 37.2175 24.2004 37.1675 24.1171 37.1008L20.2338 33.8342C20.1004 33.7175 19.8338 33.7342 19.7171 33.8342L15.8338 37.1008C15.7671 37.1675 15.6838 37.2175 15.6004 37.2508C15.2004 37.4842 14.7504 37.5842 14.3004 37.5842ZM15.9338 19.4008C16.3171 19.4008 16.6838 19.5008 17.0004 19.7175C17.5838 20.1008 17.9171 20.7508 17.9171 21.5175V26.2675C17.9171 26.9842 17.5671 27.8342 17.0671 28.3342L13.2838 32.1342C13.2171 32.2175 13.1504 32.4675 13.1838 32.5675L13.9171 34.7842C13.9671 34.9508 14.0838 35.0175 14.1504 35.0508C14.2004 35.0675 14.2838 35.1008 14.3838 35.0675L18.1171 31.9175C19.1671 31.0175 20.8171 31.0175 21.8671 31.9175L25.5838 35.0508C25.7004 35.0675 25.7838 35.0508 25.8338 35.0342C25.9004 35.0008 26.0338 34.9342 26.0838 34.7675L26.8171 32.5675C26.8504 32.4508 26.7838 32.2008 26.7171 32.1342L22.9338 28.3342C22.4338 27.8675 22.0671 27.0008 22.0671 26.2675V21.5175C22.0671 20.7675 22.3838 20.1175 22.9504 19.7342C23.5171 19.3508 24.2504 19.3008 24.9504 19.6008L33.1504 23.1342C33.4004 23.2342 33.5671 23.2342 33.6171 23.2008C33.6671 23.1675 33.7338 23.0175 33.7338 22.7508V20.6008C33.7338 19.9675 33.2004 19.1508 32.6338 18.9175L23.3338 14.9008C22.6004 14.5842 22.0838 13.7842 22.0838 12.9842V7.98418C22.0838 6.88418 21.2171 5.46751 20.2171 4.96751C20.0838 4.90085 19.9171 4.90085 19.7671 4.96751C18.8004 5.46751 17.9171 6.91751 17.9171 8.00085V13.0008C17.9171 13.7842 17.4004 14.6008 16.6671 14.9175L7.3671 18.9342C6.78376 19.1675 6.25043 19.9842 6.25043 20.6008V22.7508C6.25043 23.0175 6.3171 23.1675 6.3671 23.2008C6.4171 23.2342 6.58376 23.2342 6.83376 23.1342L15.0171 19.6008C15.3171 19.4675 15.6338 19.4008 15.9338 19.4008Z" fill="white"/>
</svg>
