<svg width="40" height="40" viewBox="0 0 40 40" fill="none" xmlns="http://www.w3.org/2000/svg">
<path d="M33.3326 19.5835H6.66598C6.28265 19.5835 5.93265 19.4168 5.69931 19.1168C5.46598 18.8335 5.36598 18.4335 5.44931 18.0668L7.33265 9.0668C7.94931 6.15013 9.19931 3.4668 14.1493 3.4668H25.866C30.816 3.4668 32.066 6.1668 32.6826 9.0668L34.566 18.0835C34.6493 18.4501 34.5493 18.8335 34.316 19.1335C34.066 19.4168 33.716 19.5835 33.3326 19.5835ZM8.19931 17.0835H31.7826L30.216 9.58346C29.7493 7.40013 29.1993 5.9668 25.8493 5.9668H14.1493C10.7993 5.9668 10.2493 7.40013 9.78265 9.58346L8.19931 17.0835Z" fill="white"/>
<path d="M33.266 37.9163H30.1327C27.4327 37.9163 26.916 36.3663 26.5827 35.3497L26.2493 34.3497C25.816 33.083 25.766 32.9163 24.266 32.9163H15.7327C14.2327 32.9163 14.1327 33.1997 13.7493 34.3497L13.416 35.3497C13.066 36.383 12.566 37.9163 9.866 37.9163H6.73266C5.416 37.9163 4.14933 37.3663 3.266 36.3997C2.39933 35.4497 1.98266 34.183 2.09933 32.9163L3.03266 22.7663C3.28266 20.0163 4.016 17.083 9.366 17.083H30.6327C35.9827 17.083 36.6993 20.0163 36.966 22.7663L37.8993 32.9163C38.016 34.183 37.5993 35.4497 36.7327 36.3997C35.8493 37.3663 34.5827 37.9163 33.266 37.9163ZM15.7327 30.4163H24.266C27.2993 30.4163 28.016 31.7663 28.616 33.533L28.966 34.5663C29.2493 35.4163 29.2493 35.433 30.1493 35.433H33.2827C33.8993 35.433 34.4827 35.183 34.8993 34.733C35.2993 34.2997 35.4827 33.7497 35.4327 33.1663L34.4993 23.0163C34.2827 20.7663 34.016 19.5997 30.666 19.5997H9.366C5.99933 19.5997 5.73266 20.7663 5.53266 23.0163L4.59933 33.1663C4.54933 33.7497 4.73266 34.2997 5.13266 34.733C5.53266 35.183 6.13266 35.433 6.74933 35.433H9.88266C10.7827 35.433 10.7827 35.4163 11.066 34.583L11.3993 33.5663C11.816 32.233 12.4327 30.4163 15.7327 30.4163Z" fill="white"/>
<path d="M6.66581 14.583H4.99915C4.31581 14.583 3.74915 14.0163 3.74915 13.333C3.74915 12.6497 4.31581 12.083 4.99915 12.083H6.66581C7.34915 12.083 7.91581 12.6497 7.91581 13.333C7.91581 14.0163 7.34915 14.583 6.66581 14.583Z" fill="white"/>
<path d="M34.9992 14.583H33.3325C32.6492 14.583 32.0825 14.0163 32.0825 13.333C32.0825 12.6497 32.6492 12.083 33.3325 12.083H34.9992C35.6825 12.083 36.2492 12.6497 36.2492 13.333C36.2492 14.0163 35.6825 14.583 34.9992 14.583Z" fill="white"/>
<path d="M19.9991 9.58333C19.3158 9.58333 18.7491 9.01667 18.7491 8.33333V5C18.7491 4.31667 19.3158 3.75 19.9991 3.75C20.6825 3.75 21.2491 4.31667 21.2491 5V8.33333C21.2491 9.01667 20.6825 9.58333 19.9991 9.58333Z" fill="white"/>
<path d="M22.4991 9.58301H17.4991C16.8158 9.58301 16.2491 9.01634 16.2491 8.33301C16.2491 7.64967 16.8158 7.08301 17.4991 7.08301H22.4991C23.1825 7.08301 23.7491 7.64967 23.7491 8.33301C23.7491 9.01634 23.1825 9.58301 22.4991 9.58301Z" fill="white"/>
<path d="M14.9991 26.25H9.99915C9.31581 26.25 8.74915 25.6833 8.74915 25C8.74915 24.3167 9.31581 23.75 9.99915 23.75H14.9991C15.6825 23.75 16.2491 24.3167 16.2491 25C16.2491 25.6833 15.6825 26.25 14.9991 26.25Z" fill="white"/>
<path d="M29.9991 26.25H24.9991C24.3158 26.25 23.7491 25.6833 23.7491 25C23.7491 24.3167 24.3158 23.75 24.9991 23.75H29.9991C30.6825 23.75 31.2491 24.3167 31.2491 25C31.2491 25.6833 30.6825 26.25 29.9991 26.25Z" fill="white"/>
</svg>
