<svg width="30" height="30" viewBox="0 0 30 30" fill="none" xmlns="http://www.w3.org/2000/svg">
<path d="M24.9998 7.1875H17.4998C16.9873 7.1875 16.5623 6.7625 16.5623 6.25C16.5623 5.7375 16.9873 5.3125 17.4998 5.3125H24.9998C25.5123 5.3125 25.9373 5.7375 25.9373 6.25C25.9373 6.7625 25.5123 7.1875 24.9998 7.1875Z" fill="#3C3C3C"/>
<path d="M21.2498 10.9375H17.4998C16.9873 10.9375 16.5623 10.5125 16.5623 10C16.5623 9.4875 16.9873 9.0625 17.4998 9.0625H21.2498C21.7623 9.0625 22.1873 9.4875 22.1873 10C22.1873 10.5125 21.7623 10.9375 21.2498 10.9375Z" fill="#3C3C3C"/>
<path d="M14.3748 27.1875C7.31226 27.1875 1.56226 21.4375 1.56226 14.375C1.56226 7.3125 7.31226 1.5625 14.3748 1.5625C14.8873 1.5625 15.3123 1.9875 15.3123 2.5C15.3123 3.0125 14.8873 3.4375 14.3748 3.4375C8.33726 3.4375 3.43726 8.35 3.43726 14.375C3.43726 20.4 8.33726 25.3125 14.3748 25.3125C20.4123 25.3125 25.3123 20.4 25.3123 14.375C25.3123 13.8625 25.7373 13.4375 26.2498 13.4375C26.7623 13.4375 27.1873 13.8625 27.1873 14.375C27.1873 21.4375 21.4373 27.1875 14.3748 27.1875Z" fill="#3C3C3C"/>
<path d="M27.5 28.4373C27.2625 28.4373 27.025 28.3498 26.8375 28.1623L24.3375 25.6623C23.975 25.2998 23.975 24.6998 24.3375 24.3373C24.7 23.9748 25.3001 23.9748 25.6626 24.3373L28.1626 26.8373C28.5251 27.1998 28.5251 27.7998 28.1626 28.1623C27.9751 28.3498 27.7375 28.4373 27.5 28.4373Z" fill="#3C3C3C"/>
</svg>
