<svg width="20" height="20" viewBox="0 0 20 20" fill="none" xmlns="http://www.w3.org/2000/svg">
<path d="M16.666 4.79199H11.666C11.3243 4.79199 11.041 4.50866 11.041 4.16699C11.041 3.82533 11.3243 3.54199 11.666 3.54199H16.666C17.0077 3.54199 17.291 3.82533 17.291 4.16699C17.291 4.50866 17.0077 4.79199 16.666 4.79199Z" fill="#3C3C3C"/>
<path d="M14.166 7.29199H11.666C11.3243 7.29199 11.041 7.00866 11.041 6.66699C11.041 6.32533 11.3243 6.04199 11.666 6.04199H14.166C14.5077 6.04199 14.791 6.32533 14.791 6.66699C14.791 7.00866 14.5077 7.29199 14.166 7.29199Z" fill="#3C3C3C"/>
<path d="M9.58268 18.1253C4.87435 18.1253 1.04102 14.292 1.04102 9.58366C1.04102 4.87533 4.87435 1.04199 9.58268 1.04199C9.92435 1.04199 10.2077 1.32533 10.2077 1.66699C10.2077 2.00866 9.92435 2.29199 9.58268 2.29199C5.55768 2.29199 2.29102 5.56699 2.29102 9.58366C2.29102 13.6003 5.55768 16.8753 9.58268 16.8753C13.6077 16.8753 16.8744 13.6003 16.8744 9.58366C16.8744 9.24199 17.1577 8.95866 17.4994 8.95866C17.841 8.95866 18.1244 9.24199 18.1244 9.58366C18.1244 14.292 14.291 18.1253 9.58268 18.1253Z" fill="#3C3C3C"/>
<path d="M18.3326 18.9585C18.1742 18.9585 18.0159 18.9002 17.8909 18.7752L16.2242 17.1085C15.9826 16.8669 15.9826 16.4669 16.2242 16.2252C16.4659 15.9835 16.8659 15.9835 17.1076 16.2252L18.7742 17.8919C19.0159 18.1335 19.0159 18.5335 18.7742 18.7752C18.6492 18.9002 18.4909 18.9585 18.3326 18.9585Z" fill="#3C3C3C"/>
</svg>
