<svg width="20" height="20" viewBox="0 0 20 20" fill="none" xmlns="http://www.w3.org/2000/svg">
<path d="M16.1835 9.79199H13.3335C12.9918 9.79199 12.7085 9.50866 12.7085 9.16699V3.34199C12.7085 2.72533 12.9502 2.15033 13.3835 1.71699C13.8168 1.28366 14.3918 1.04199 15.0085 1.04199H15.0168C16.0585 1.05033 17.0418 1.45866 17.7918 2.20033C18.5418 2.95866 18.9502 3.95866 18.9502 5.00033V7.01699C18.9585 8.67533 17.8418 9.79199 16.1835 9.79199ZM13.9585 8.54199H16.1835C17.1501 8.54199 17.7085 7.98366 17.7085 7.01699V5.00033C17.7085 4.28366 17.4252 3.60033 16.9168 3.08366C16.4085 2.58366 15.7335 2.30033 15.0168 2.29199C15.0168 2.29199 15.0168 2.29199 15.0085 2.29199C14.7335 2.29199 14.4668 2.40033 14.2668 2.60033C14.0668 2.80033 13.9585 3.05866 13.9585 3.34199V8.54199Z" fill="#505050"/>
<path d="M7.4998 19.442C7.10813 19.442 6.74147 19.292 6.46647 19.0087L5.08311 17.617C5.00811 17.542 4.89148 17.5337 4.80815 17.6003L3.38313 18.667C2.94146 19.0003 2.35811 19.0587 1.85811 18.8087C1.35811 18.5587 1.0498 18.0587 1.0498 17.5003V5.00033C1.0498 2.48366 2.49147 1.04199 5.00814 1.04199H15.0081C15.3498 1.04199 15.6331 1.32533 15.6331 1.66699C15.6331 2.00866 15.3498 2.29199 15.0081 2.29199C14.4331 2.29199 13.9665 2.75866 13.9665 3.33366V17.5003C13.9665 18.0587 13.6581 18.5587 13.1581 18.8087C12.6664 19.0587 12.0748 19.0003 11.6331 18.667L10.2081 17.6003C10.1248 17.5337 10.0081 17.5503 9.94146 17.617L8.54146 19.017C8.25813 19.292 7.89146 19.442 7.4998 19.442ZM4.92477 16.3087C5.30811 16.3087 5.68311 16.4503 5.96644 16.742L7.3498 18.1337C7.3998 18.1837 7.46646 18.192 7.4998 18.192C7.53313 18.192 7.59979 18.1837 7.64979 18.1337L9.04978 16.7337C9.56645 16.217 10.3832 16.167 10.9581 16.6087L12.3748 17.667C12.4664 17.7337 12.5498 17.7087 12.5915 17.6837C12.6331 17.6587 12.7081 17.6087 12.7081 17.5003V3.33366C12.7081 2.95866 12.7998 2.60033 12.9581 2.29199H4.9998C3.1498 2.29199 2.29146 3.15033 2.29146 5.00033V17.5003C2.29146 17.617 2.36648 17.667 2.40814 17.692C2.45814 17.717 2.54148 17.7337 2.62482 17.667L4.04978 16.6003C4.30812 16.4087 4.61644 16.3087 4.92477 16.3087Z" fill="#505050"/>
<path d="M10 8.125H5C4.65833 8.125 4.375 7.84167 4.375 7.5C4.375 7.15833 4.65833 6.875 5 6.875H10C10.3417 6.875 10.625 7.15833 10.625 7.5C10.625 7.84167 10.3417 8.125 10 8.125Z" fill="#505050"/>
<path d="M9.375 11.458H5.625C5.28333 11.458 5 11.1747 5 10.833C5 10.4913 5.28333 10.208 5.625 10.208H9.375C9.71667 10.208 10 10.4913 10 10.833C10 11.1747 9.71667 11.458 9.375 11.458Z" fill="#505050"/>
</svg>
