<svg width="20" height="20" viewBox="0 0 20 20" fill="none" xmlns="http://www.w3.org/2000/svg">
<path d="M15.9084 10.4917C15.7751 10.4917 15.6418 10.45 15.5251 10.3583C12.1668 7.76666 7.82511 7.76666 4.46677 10.3583C4.19177 10.5667 3.8001 10.5167 3.59177 10.25C3.38344 9.97499 3.43344 9.58333 3.70011 9.375C7.52511 6.41667 12.4668 6.41667 16.2834 9.375C16.5584 9.58333 16.6084 9.97499 16.3918 10.25C16.2834 10.4083 16.1001 10.4917 15.9084 10.4917Z" fill="#505050"/>
<path d="M18.3331 7.59166C18.1998 7.59166 18.0664 7.55002 17.9498 7.45835C13.1164 3.72502 6.87479 3.72502 2.04979 7.45835C1.77479 7.66669 1.38312 7.61668 1.17478 7.35002C0.966451 7.07502 1.01644 6.68333 1.28311 6.475C6.57478 2.38333 13.4165 2.38333 18.7165 6.475C18.9915 6.68333 19.0414 7.07502 18.8248 7.35002C18.7081 7.50835 18.5164 7.59166 18.3331 7.59166Z" fill="#505050"/>
<path d="M14.342 13.5331C14.2086 13.5331 14.0753 13.4914 13.9586 13.3997C11.5586 11.5414 8.4503 11.5414 6.04197 13.3997C5.76697 13.6081 5.3753 13.5581 5.16697 13.2914C4.95863 13.0164 5.00864 12.6247 5.2753 12.4164C8.14197 10.1997 11.8503 10.1997 14.717 12.4164C14.992 12.6247 15.042 13.0164 14.8253 13.2914C14.7086 13.4498 14.5253 13.5331 14.342 13.5331Z" fill="#505050"/>
<path d="M12.1668 16.5831C12.0335 16.5831 11.9001 16.5414 11.7835 16.4497C10.7001 15.6081 9.29181 15.6081 8.20848 16.4497C7.93348 16.6581 7.54181 16.6081 7.33348 16.3414C7.12514 16.0664 7.17513 15.6747 7.4418 15.4664C8.9918 14.2664 10.9918 14.2664 12.5418 15.4664C12.8168 15.6747 12.8668 16.0664 12.6501 16.3414C12.5418 16.4914 12.3585 16.5831 12.1668 16.5831Z" fill="#505050"/>
</svg>
