<svg width="20" height="20" viewBox="0 0 20 20" fill="none" xmlns="http://www.w3.org/2000/svg">
<path d="M14.8335 7.23365H5.16679C4.97512 7.23365 4.80012 7.15035 4.68345 7.00035C4.56679 6.85035 4.51679 6.65868 4.55846 6.47534L5.24179 3.20864C5.46679 2.13364 5.95846 1.04199 7.87512 1.04199H12.1251C14.0501 1.04199 14.5418 2.14197 14.7585 3.20864L15.4418 6.47534C15.4835 6.65868 15.4335 6.85035 15.3168 7.00035C15.2001 7.15035 15.0251 7.23365 14.8335 7.23365ZM5.93345 5.98365H14.0585L13.5335 3.47531C13.3668 2.67531 13.1751 2.30033 12.1168 2.30033H7.86679C6.81679 2.30033 6.6168 2.67531 6.45013 3.47531L5.93345 5.98365Z" fill="#505050"/>
<path d="M14.8081 13.8751H13.6748C12.5748 13.8751 12.3498 13.1918 12.2248 12.8251L12.0998 12.4584C11.9665 12.0584 11.9665 12.0584 11.5415 12.0584H8.44979C8.02479 12.0584 8.02479 12.0667 7.89146 12.4584L7.76646 12.8251C7.64146 13.1918 7.41646 13.8751 6.31646 13.8751H5.18312C4.65812 13.8751 4.14979 13.6501 3.79979 13.2667C3.45812 12.8917 3.28312 12.3834 3.33312 11.8751L3.67479 8.20009C3.78313 7.05009 4.15812 5.9834 6.14145 5.9834H13.8498C15.8331 5.9834 16.2081 7.05009 16.3165 8.20009L16.6581 11.8834C16.7081 12.3917 16.5331 12.9001 16.1915 13.2751C15.8415 13.6584 15.3331 13.8751 14.8081 13.8751ZM13.4831 12.6167C13.4998 12.6167 13.5665 12.6251 13.6748 12.6251H14.8081C14.9831 12.6251 15.1498 12.5584 15.2665 12.425C15.3748 12.3084 15.4248 12.1501 15.4165 11.9917L15.0748 8.30838C15.0081 7.56671 14.9748 7.22506 13.8581 7.22506H6.14979C5.03313 7.22506 4.99979 7.56671 4.93312 8.30838L4.59145 11.9917C4.57478 12.1501 4.62479 12.3084 4.74146 12.425C4.85812 12.55 5.02479 12.6251 5.19979 12.6251H6.33313C6.49979 12.6251 6.54978 12.6001 6.55812 12.6001C6.54978 12.6001 6.57479 12.5001 6.59979 12.4334L6.7248 12.0667C6.88313 11.6001 7.14146 10.8084 8.46646 10.8084H11.5581C12.7665 10.8084 13.0748 11.4001 13.2915 12.0501L13.4165 12.425C13.4331 12.5 13.4581 12.5834 13.4831 12.6167C13.4831 12.6167 13.4748 12.6167 13.4831 12.6167Z" fill="#505050"/>
<path d="M5.16692 5.41699H4.55859C4.21693 5.41699 3.93359 5.13366 3.93359 4.79199C3.93359 4.45033 4.21693 4.16699 4.55859 4.16699H5.16692C5.50859 4.16699 5.79192 4.45033 5.79192 4.79199C5.79192 5.13366 5.50859 5.41699 5.16692 5.41699Z" fill="#505050"/>
<path d="M15.4413 5.41699H14.833C14.4913 5.41699 14.208 5.13366 14.208 4.79199C14.208 4.45033 14.4913 4.16699 14.833 4.16699H15.4413C15.783 4.16699 16.0663 4.45033 16.0663 4.79199C16.0663 5.13366 15.783 5.41699 15.4413 5.41699Z" fill="#505050"/>
<path d="M8.18337 9.65039H6.3667C6.02503 9.65039 5.7417 9.36706 5.7417 9.02539C5.7417 8.68372 6.02503 8.40039 6.3667 8.40039H8.18337C8.52504 8.40039 8.80837 8.68372 8.80837 9.02539C8.80837 9.36706 8.53337 9.65039 8.18337 9.65039Z" fill="#505050"/>
<path d="M13.6248 9.65039H11.8081C11.4664 9.65039 11.1831 9.36706 11.1831 9.02539C11.1831 8.68372 11.4664 8.40039 11.8081 8.40039H13.6248C13.9664 8.40039 14.2498 8.68372 14.2498 9.02539C14.2498 9.36706 13.9664 9.65039 13.6248 9.65039Z" fill="#505050"/>
<path d="M10 15.6253C9.65833 15.6253 9.375 15.342 9.375 15.0003V14.167C9.375 13.8253 9.65833 13.542 10 13.542C10.3417 13.542 10.625 13.8253 10.625 14.167V15.0003C10.625 15.342 10.3417 15.6253 10 15.6253Z" fill="#505050"/>
<path d="M10 18.9583C9.65833 18.9583 9.375 18.675 9.375 18.3333V17.5C9.375 17.1583 9.65833 16.875 10 16.875C10.3417 16.875 10.625 17.1583 10.625 17.5V18.3333C10.625 18.675 10.3417 18.9583 10 18.9583Z" fill="#505050"/>
<path d="M1.66674 18.9581C1.61674 18.9581 1.56675 18.9497 1.51675 18.9414C1.18342 18.8581 0.975081 18.5164 1.05841 18.1831L1.89175 14.8497C1.97508 14.5164 2.3084 14.3081 2.65007 14.3914C2.9834 14.4748 3.19174 14.8164 3.10841 15.1497L2.27507 18.4831C2.20007 18.7664 1.95008 18.9581 1.66674 18.9581Z" fill="#505050"/>
<path d="M18.3336 18.9586C18.0502 18.9586 17.8002 18.7669 17.7252 18.4836L16.8919 15.1502C16.8086 14.8169 17.0086 14.4752 17.3502 14.3919C17.6836 14.3086 18.0252 14.5086 18.1086 14.8502L18.9419 18.1836C19.0252 18.5169 18.8252 18.8585 18.4836 18.9419C18.4336 18.9502 18.3836 18.9586 18.3336 18.9586Z" fill="#505050"/>
</svg>
