<svg width="20" height="20" viewBox="0 0 20 20" fill="none" xmlns="http://www.w3.org/2000/svg">
<path d="M15.8083 18.9587H4.1416C1.0166 18.9587 1.0166 17.2253 1.0166 15.8337V15.0003C1.0166 14.2003 1.67493 13.542 2.47493 13.542H17.4749C18.2749 13.542 18.9333 14.2003 18.9333 15.0003V15.8337C18.9333 17.2253 18.9333 18.9587 15.8083 18.9587ZM2.47493 14.792C2.35827 14.792 2.2666 14.8837 2.2666 15.0003V15.8337C2.2666 17.2003 2.2666 17.7087 4.1416 17.7087H15.8083C17.6833 17.7087 17.6833 17.2003 17.6833 15.8337V15.0003C17.6833 14.8837 17.5916 14.792 17.4749 14.792H2.47493Z" fill="#505050"/>
<path d="M17.2668 14.792H2.7251C2.38343 14.792 2.1001 14.5087 2.1001 14.167V10.8337C2.1001 7.41699 4.5251 4.41699 7.85843 3.70866C8.3501 3.60033 8.86676 3.54199 9.39176 3.54199H10.6001C11.1334 3.54199 11.6501 3.60033 12.1418 3.70866C15.4751 4.42533 17.8918 7.42533 17.8918 10.8337V14.167C17.8918 14.5087 17.6168 14.792 17.2668 14.792ZM3.3501 13.542H16.6418V10.8337C16.6418 8.00866 14.6418 5.52533 11.8751 4.92533C11.4668 4.83366 11.0418 4.79199 10.6001 4.79199H9.39176C8.95843 4.79199 8.53343 4.83366 8.1251 4.92533C5.35843 5.51699 3.3501 8.00033 3.3501 10.8337V13.542Z" fill="#505050"/>
<path d="M7.9915 4.94199C7.7165 4.94199 7.4665 4.75866 7.3915 4.48366C7.32484 4.24199 7.2915 4.00033 7.2915 3.75033C7.2915 2.25866 8.50817 1.04199 9.99984 1.04199C11.4915 1.04199 12.7082 2.25866 12.7082 3.75033C12.7082 4.00033 12.6748 4.24199 12.6082 4.48366C12.5248 4.80033 12.2082 5.00033 11.8748 4.92533C11.4665 4.83366 11.0415 4.79199 10.5998 4.79199H9.3915C8.95817 4.79199 8.53317 4.83366 8.12484 4.92533C8.08317 4.93366 8.0415 4.94199 7.9915 4.94199ZM9.3915 3.54199H10.5998C10.8832 3.54199 11.1748 3.55866 11.4498 3.59199C11.3748 2.85866 10.7498 2.29199 9.99984 2.29199C9.24984 2.29199 8.63317 2.85866 8.54984 3.59199C8.83317 3.55866 9.10817 3.54199 9.3915 3.54199Z" fill="#505050"/>
<path d="M12.5 9.79199H7.5C7.15833 9.79199 6.875 9.50866 6.875 9.16699C6.875 8.82533 7.15833 8.54199 7.5 8.54199H12.5C12.8417 8.54199 13.125 8.82533 13.125 9.16699C13.125 9.50866 12.8417 9.79199 12.5 9.79199Z" fill="#505050"/>
</svg>
