<svg width="78" height="7" viewBox="0 0 78 7" fill="none" xmlns="http://www.w3.org/2000/svg">
<path d="M4.32616 6.26154H2.86462V1.39846H0V0H7.2V1.39846H4.32616V6.26154Z" fill="#DA2027"/>
<path d="M10.683 0H12.0891L15.6768 6.26154H14.0415L13.3122 4.89077H9.33992L8.59684 6.26154H7.14453L10.683 0ZM12.5984 3.55539L11.3384 1.22L10.0645 3.55692L12.5984 3.55539Z" fill="#005899"/>
<path d="M16.3086 0H17.7609V6.26154H16.3086V0Z" fill="#005899"/>
<path d="M21.6432 3.46616L18.3848 0H20.3555L22.4617 2.37539L24.5986 0H26.3355L23.0955 3.42923V6.26154H21.6432V3.46616Z" fill="#005899"/>
<path d="M34.278 4.88214C34.2826 5.1007 34.2588 5.31893 34.2073 5.53137C34.1677 5.69134 34.0871 5.83822 33.9734 5.95753C33.8546 6.07159 33.7075 6.1518 33.5473 6.18984C33.3349 6.24209 33.1167 6.2664 32.898 6.26214H28.2057C27.9891 6.26645 27.7729 6.24213 27.5626 6.18984C27.4041 6.15104 27.2586 6.07088 27.1411 5.95753C27.028 5.84081 26.9474 5.69655 26.9073 5.53907C26.8557 5.32663 26.8319 5.10839 26.8365 4.88983V1.38522C26.8365 0.872397 26.9391 0.513422 27.1442 0.308294C27.3493 0.103165 27.7042 0.000601282 28.2088 0.000601282H32.9011C33.12 -0.00432541 33.3384 0.0210432 33.5503 0.0759859C33.7081 0.118063 33.8533 0.197779 33.9734 0.308294C34.088 0.426901 34.1688 0.574055 34.2073 0.734448C34.2589 0.947393 34.2827 1.16615 34.278 1.38522V4.88214ZM32.8257 4.87291V1.39906H28.2888V4.87291H32.8257Z" fill="#005899"/>
<path d="M39.4916 6.26154H38.0286V1.39846H35.1562V0H42.3639V1.39846H39.4916V6.26154Z" fill="#DA2027"/>
<path d="M43.3672 0H44.8195V6.26154H43.3672V0Z" fill="#005899"/>
<path d="M52.3772 2.38522V1.39907H47.8464V4.87291H52.3833V3.73753L53.8356 4.04522V4.87907C53.8402 5.09763 53.8164 5.31586 53.7649 5.5283C53.726 5.68853 53.6453 5.83558 53.531 5.95445C53.4122 6.06852 53.2651 6.14873 53.1049 6.18676C52.8931 6.23902 52.6753 6.26333 52.4572 6.25907H47.7649C47.5477 6.26351 47.331 6.23919 47.1203 6.18676C46.9617 6.14797 46.8162 6.06781 46.6987 5.95445C46.5855 5.83852 46.504 5.69551 46.4618 5.53907C46.411 5.3265 46.3872 5.10836 46.391 4.88984V1.38522C46.391 0.8724 46.4936 0.513426 46.6987 0.308297C46.9038 0.103169 47.2592 0.000604858 47.7649 0.000604858H52.4572C52.6755 -0.00433788 52.8935 0.0210321 53.1049 0.0759895C53.2617 0.118181 53.4058 0.197914 53.5249 0.308297C53.6404 0.426258 53.7213 0.573669 53.7587 0.734451C53.8104 0.947396 53.8342 1.16615 53.8295 1.38522V2.07753L52.3772 2.38522Z" fill="#005899"/>
<path d="M55.3965 0H56.8488V2.61539L60.3319 0H62.4442L58.3334 2.98462L62.9488 6.26154H60.615L56.8488 3.51231V6.26154H55.3965V0Z" fill="#005899"/>
<path d="M63.5762 0H69.9777V1.39846H65.0285V2.33846H67.9192V3.66308H65.0285V4.87231H70.0408V6.25693H63.5793L63.5762 0Z" fill="#005899"/>
<path d="M75.1229 6.26154H73.6614V1.39846H70.7891V0H77.9998V1.39846H75.1229V6.26154Z" fill="#005899"/>
</svg>
