<svg width="40" height="40" viewBox="0 0 40 40" fill="none" xmlns="http://www.w3.org/2000/svg">
<circle cx="20" cy="20" r="20" fill="black"/>
<path d="M12.4507 23.9045C12.607 22.6106 13.1377 21.8861 14.1377 21.1435C15.5686 20.1377 17.3559 20.7066 17.3559 20.7066V17.3315C17.7904 17.3204 18.2251 17.3461 18.6549 17.4084V21.7519C18.6549 21.7519 16.8681 21.183 15.4373 22.1893C14.4378 22.9314 13.906 23.6564 13.7503 24.9503C13.7454 25.6529 13.8773 26.5713 14.4844 27.3654C14.3343 27.2885 14.1813 27.2007 14.0254 27.1023C12.6879 26.2041 12.4442 24.8567 12.4507 23.9045ZM26.0349 11.0908C25.0506 10.0122 24.6784 8.92321 24.5439 8.1582H25.7821C25.7821 8.1582 25.5352 10.1641 27.3345 12.1366L27.3594 12.1632C26.8745 11.8581 26.4298 11.4981 26.0349 11.0908ZM31.9998 14.1487V18.4049C31.9998 18.4049 30.4198 18.343 29.2504 18.0455C27.6177 17.6295 26.5683 16.9914 26.5683 16.9914C26.5683 16.9914 25.8434 16.5363 25.7848 16.5046V25.2935C25.7848 25.7829 25.6508 27.005 25.2422 28.0243C24.7088 29.3578 23.8857 30.233 23.7343 30.4119C23.7343 30.4119 22.7332 31.595 20.967 32.3918C19.375 33.1105 17.9772 33.0923 17.5594 33.1105C17.5594 33.1105 15.1432 33.2062 12.9689 31.7932C12.4988 31.4818 12.0599 31.129 11.658 30.7396L11.6688 30.7474C13.8436 32.1603 16.2593 32.0647 16.2593 32.0647C16.6777 32.0465 18.0754 32.0647 19.6669 31.3459C21.4315 30.5492 22.4342 29.3661 22.4342 29.3661C22.584 29.1872 23.4109 28.3119 23.9421 26.978C24.3496 25.9592 24.4847 24.7365 24.4847 24.2472V15.4593C24.5433 15.4915 25.2677 15.9466 25.2677 15.9466C25.2677 15.9466 26.3176 16.5852 27.9503 17.0007C29.1202 17.2982 30.6997 17.3601 30.6997 17.3601V14.025C31.2402 14.1461 31.7009 14.1789 31.9998 14.1487Z" fill="#EE1D52"/>
<path d="M30.7004 14.025V17.359C30.7004 17.359 29.1209 17.2971 27.951 16.9997C26.3183 16.5836 25.2684 15.9455 25.2684 15.9455C25.2684 15.9455 24.544 15.4905 24.4854 15.4582V24.2482C24.4854 24.7376 24.3514 25.9602 23.9428 26.979C23.4094 28.313 22.5863 29.1882 22.4349 29.3671C22.4349 29.3671 21.4332 30.5503 19.6676 31.347C18.0761 32.0657 16.6783 32.0475 16.26 32.0657C16.26 32.0657 13.8443 32.1614 11.6695 30.7484L11.6587 30.7406C11.4291 30.5183 11.2129 30.2835 11.0113 30.0375C10.3173 29.1913 9.89194 28.1908 9.78505 27.9052C9.78486 27.904 9.78486 27.9028 9.78505 27.9016C9.61304 27.4055 9.25166 26.214 9.30104 25.06C9.3884 23.024 10.1046 21.7743 10.294 21.4612C10.7955 20.6075 11.4479 19.8436 12.2219 19.2037C12.905 18.6514 13.6792 18.212 14.5128 17.9035C15.414 17.5413 16.379 17.3471 17.3561 17.3315V20.7066C17.3561 20.7066 15.5687 20.1398 14.1384 21.1435C13.1384 21.8861 12.6077 22.6106 12.4514 23.9045C12.4449 24.8567 12.6885 26.2041 14.025 27.1028C14.1809 27.2016 14.3339 27.2893 14.484 27.366C14.7175 27.6694 15.0017 27.9339 15.3251 28.1486C16.6306 28.975 17.7245 29.0327 19.1233 28.496C20.0561 28.1372 20.7582 27.3285 21.0838 26.4325C21.2883 25.8729 21.2856 25.3096 21.2856 24.7272V8.1582H24.5413C24.6759 8.92321 25.0481 10.0122 26.0324 11.0908C26.4272 11.4981 26.8719 11.8581 27.3569 12.1632C27.5001 12.3114 28.2327 13.0441 29.173 13.494C29.6592 13.7265 30.1717 13.9047 30.7004 14.025Z" fill="#FEFEFE"/>
<path d="M8.48915 26.8672V26.8698L8.56993 27.0887C8.56066 27.0632 8.53063 26.9858 8.48915 26.8672Z" fill="#69C9D0"/>
<path d="M14.5128 17.902C13.6792 18.2105 12.905 18.6499 12.2219 19.2021C11.4476 19.8435 10.7955 20.609 10.2946 21.4644C10.1052 21.7764 9.38897 23.0271 9.30161 25.0632C9.25223 26.2172 9.61361 27.4086 9.78561 27.9048C9.78543 27.906 9.78543 27.9072 9.78561 27.9084C9.89413 28.1913 10.3179 29.1919 11.0119 30.0406C11.2135 30.2867 11.4296 30.5214 11.6592 30.7437C10.9236 30.2561 10.2675 29.6665 9.71236 28.9943C9.02433 28.1554 8.60001 27.1652 8.48932 26.873C8.48919 26.8709 8.48919 26.8688 8.48932 26.8667V26.8631C8.31677 26.3675 7.95431 25.1755 8.00477 24.0199C8.09213 21.9839 8.80838 20.7342 8.99775 20.4211C9.4985 19.5657 10.1507 18.8002 10.9251 18.1589C11.608 17.6065 12.3823 17.1671 13.216 16.8588C13.736 16.652 14.2778 16.4994 14.8319 16.4037C15.6669 16.264 16.5198 16.2519 17.3588 16.3678V17.3299C16.3808 17.3453 15.4148 17.5394 14.5128 17.902Z" fill="#69C9D0"/>
<path d="M24.5438 8.15768H21.2881V24.7272C21.2881 25.3096 21.2881 25.8713 21.0863 26.4324C20.7575 27.328 20.058 28.1367 19.1258 28.4955C17.7265 29.0343 16.6326 28.9745 15.3276 28.1481C15.0036 27.9343 14.7187 27.6708 14.4844 27.368C15.5962 27.9364 16.5913 27.9266 17.8241 27.4523C18.7558 27.0934 19.4563 26.2848 19.784 25.3887C19.9891 24.8291 19.9864 24.2659 19.9864 23.684V7.11133H24.4819C24.4819 7.11133 24.4315 7.52321 24.5438 8.15768ZM30.7002 13.1024V14.0244C30.1725 13.904 29.6609 13.7258 29.1755 13.4935C28.2352 13.0436 27.5026 12.3108 27.3594 12.1626C27.5256 12.2672 27.6981 12.3624 27.8759 12.4476C29.0192 12.9947 30.1451 13.158 30.7002 13.1024Z" fill="#69C9D0"/>
</svg>
