<svg width="16" height="16" viewBox="0 0 16 16" fill="none" xmlns="http://www.w3.org/2000/svg">
<path d="M10.3265 13.8403C10.1998 13.8403 10.0731 13.7936 9.97312 13.6936C9.77979 13.5003 9.77979 13.1803 9.97312 12.987L13.3131 9.64695C13.5065 9.45362 13.8265 9.45362 14.0198 9.64695C14.2131 9.84029 14.2131 10.1603 14.0198 10.3536L10.6798 13.6936C10.5798 13.787 10.4531 13.8403 10.3265 13.8403Z" fill="#3C3C3C"/>
<path d="M13.6673 10.4932H2.33398C2.06065 10.4932 1.83398 10.2665 1.83398 9.99316C1.83398 9.71983 2.06065 9.49316 2.33398 9.49316H13.6673C13.9406 9.49316 14.1673 9.71983 14.1673 9.99316C14.1673 10.2665 13.9406 10.4932 13.6673 10.4932Z" fill="#3C3C3C"/>
<path d="M2.33427 6.5063C2.2076 6.5063 2.08094 6.45964 1.98094 6.35964C1.7876 6.1663 1.7876 5.8463 1.98094 5.65297L5.32094 2.31297C5.51427 2.11964 5.83427 2.11964 6.0276 2.31297C6.22094 2.5063 6.22094 2.8263 6.0276 3.01964L2.6876 6.35964C2.59427 6.45297 2.46094 6.5063 2.33427 6.5063Z" fill="#3C3C3C"/>
<path d="M13.6673 6.50684H2.33398C2.06065 6.50684 1.83398 6.28017 1.83398 6.00684C1.83398 5.7335 2.06065 5.50684 2.33398 5.50684H13.6673C13.9406 5.50684 14.1673 5.7335 14.1673 6.00684C14.1673 6.28017 13.9406 6.50684 13.6673 6.50684Z" fill="#3C3C3C"/>
</svg>
